<?xml version="1.0" standalone="no"?>
<!DOCTYPE svg PUBLIC "-//W3C//DTD SVG 20010904//EN"
 "http://www.w3.org/TR/2001/REC-SVG-20010904/DTD/svg10.dtd">
<svg version="1.0" xmlns="http://www.w3.org/2000/svg"
 width="1616.000000pt" height="340.000000pt" viewBox="0 0 1616.000000 340.000000"
 preserveAspectRatio="xMidYMid meet">

<g transform="translate(0.000000,340.000000) scale(0.100000,-0.100000)"
fill="#000000" stroke="none">
<path d="M13695 2936 c-15 -23 -15 -27 4 -63 20 -41 46 -195 37 -219 -4 -10
-27 -14 -90 -14 -83 0 -84 0 -94 28 -21 61 -24 62 -246 62 -217 0 -266 5 -266
25 0 22 82 86 100 79 8 -4 27 -9 43 -12 24 -4 27 -1 27 22 0 53 -80 60 -150
11 -44 -30 -73 -80 -69 -115 7 -44 37 -50 270 -50 217 0 239 -3 239 -37 0 -10
-64 -13 -320 -13 l-320 0 -2 23 c-1 12 -2 52 -2 88 -1 73 -15 99 -53 99 -33 0
-40 -26 -14 -54 31 -32 26 -44 -21 -57 -59 -15 -78 -35 -78 -78 0 -20 4 -41 8
-47 12 -18 49 -34 78 -34 22 0 25 -2 14 -15 -10 -12 -9 -15 6 -15 11 0 28 7
39 15 16 13 85 15 458 14 l439 -1 -6 -31 -6 -32 30 33 c25 26 37 32 72 32 32
0 46 -5 56 -20 8 -14 23 -20 47 -20 24 0 37 6 45 20 8 15 21 20 54 20 30 0 48
-6 61 -20 10 -11 30 -20 45 -20 15 0 35 9 45 20 15 17 31 20 97 20 45 0 87 -5
99 -12 17 -11 22 -10 34 6 23 30 29 105 17 192 -7 44 -12 98 -12 121 0 47 -22
73 -48 56 -25 -15 -26 -49 -4 -101 21 -49 26 -85 23 -162 l-1 -45 -92 3 c-89
4 -94 5 -116 33 -14 17 -33 29 -46 29 -24 0 -56 -28 -56 -48 0 -8 -17 -12 -45
-12 -25 0 -45 5 -45 10 0 19 -40 50 -65 50 -18 0 -31 -9 -43 -30 -14 -24 -23
-30 -53 -30 l-36 0 -6 68 c-4 37 -9 99 -12 137 -4 39 -8 80 -11 93 -6 30 -39
29 -59 -2z m-877 -270 c-2 -15 -12 -22 -32 -24 -50 -6 -60 34 -13 56 28 12 49
-3 45 -32z m1120 -49 c2 -19 -1 -27 -13 -27 -19 0 -30 24 -21 46 9 23 31 11
34 -19z m209 -11 c-4 -9 -11 -16 -17 -16 -15 0 -24 26 -16 47 6 15 8 15 23 1
9 -9 13 -24 10 -32z"/>
<path d="M12322 2938 c-17 -17 -15 -50 8 -99 14 -32 20 -66 20 -124 l0 -81
-72 4 c-64 4 -74 7 -96 33 -13 16 -34 29 -46 29 -24 0 -56 -28 -56 -48 0 -8
-21 -12 -62 -11 -54 0 -59 2 -35 11 36 13 35 43 -2 62 -16 9 -31 22 -34 31 -8
20 -41 19 -58 -1 -7 -8 -25 -22 -41 -30 -36 -19 -37 -49 0 -62 21 -8 -2 -11
-99 -11 -101 -1 -129 2 -139 14 -16 19 -34 19 -50 0 -9 -11 -9 -21 0 -47 11
-29 10 -39 -8 -73 -42 -83 -137 -144 -222 -145 -52 0 -135 35 -165 70 -11 13
-15 21 -9 17 17 -10 48 18 41 37 -7 19 -42 22 -53 4 -5 -8 -10 -6 -15 8 -6 16
-8 15 -8 -7 -1 -15 14 -49 32 -75 105 -159 367 -111 456 84 l24 52 120 0 c98
0 124 3 139 17 17 15 19 15 36 0 13 -12 37 -17 84 -17 52 0 68 -4 83 -20 10
-11 30 -20 45 -20 15 0 35 9 45 20 14 16 31 20 75 20 31 0 61 -5 67 -11 17
-17 52 0 60 29 15 54 0 315 -20 340 -12 15 -30 15 -45 0z m-382 -260 c-12 -4
-33 -5 -47 -2 l-26 7 24 17 c21 17 25 17 47 2 l24 -16 -22 -8z m217 -72 c-4
-9 -11 -16 -17 -16 -15 0 -24 26 -16 47 6 15 8 15 23 1 9 -9 13 -24 10 -32z"/>
<path d="M12447 2932 c-18 -20 -22 -48 -8 -56 12 -8 22 -78 23 -169 0 -61 -4
-83 -21 -112 -27 -46 -26 -49 3 -30 13 9 34 35 46 58 22 41 22 48 13 141 -6
54 -7 114 -2 134 4 20 6 40 3 44 -9 14 -40 9 -57 -10z"/>
<path d="M14477 2932 c-19 -21 -22 -43 -6 -59 5 -5 14 -53 19 -105 10 -99 4
-140 -25 -184 -21 -33 -19 -37 11 -18 52 35 62 74 59 234 -3 133 -5 145 -22
148 -11 2 -27 -6 -36 -16z"/>
<path d="M2860 2899 c-41 -16 -86 -34 -100 -40 l-24 -11 48 -42 49 -42 -48
-42 c-27 -23 -46 -44 -43 -47 7 -7 200 -85 210 -85 5 0 8 10 6 21 -2 16 -20
28 -68 47 -36 14 -67 27 -70 30 -3 2 15 21 38 42 l44 37 -41 35 -41 35 67 25
c52 19 69 30 71 46 4 28 -7 27 -98 -9z"/>
<path d="M5315 2896 c-44 -18 -89 -35 -99 -39 -17 -7 -14 -13 30 -52 32 -29
45 -47 38 -52 -30 -21 -86 -75 -82 -79 7 -6 200 -84 210 -84 16 0 8 41 -9 47
-10 3 -43 17 -73 30 l-55 24 43 36 43 36 -36 37 -36 37 63 26 c46 18 64 30 66
46 4 27 -6 26 -103 -13z"/>
<path d="M8030 2916 c0 -9 5 -16 10 -16 6 0 10 4 10 9 0 6 -4 13 -10 16 -5 3
-10 -1 -10 -9z"/>
<path d="M10895 2913 c-5 -12 -9 -14 -12 -5 -7 17 -53 15 -60 -4 -3 -8 1 -23
10 -31 14 -15 18 -15 40 0 16 10 28 12 34 6 16 -16 44 1 41 25 -4 27 -43 34
-53 9z"/>
<path d="M12745 2921 c-3 -5 -21 -7 -40 -4 -32 5 -35 4 -35 -20 0 -30 21 -41
46 -22 13 9 23 10 31 3 12 -10 53 5 53 20 0 24 -43 41 -55 23z"/>
<path d="M1330 2850 l0 -70 -40 0 c-36 0 -40 -2 -40 -25 0 -22 4 -25 40 -25
l40 0 0 -70 c0 -63 2 -70 20 -70 18 0 20 7 20 70 l0 70 40 0 c36 0 40 3 40 25
0 23 -4 25 -40 25 l-40 0 0 70 c0 63 -2 70 -20 70 -18 0 -20 -7 -20 -70z"/>
<path d="M1765 2893 c10 -16 33 -50 52 -78 18 -27 33 -54 33 -60 0 -6 -15 -33
-33 -60 -76 -113 -73 -105 -44 -105 19 0 33 13 63 60 22 33 42 60 46 60 4 0
23 -27 43 -60 29 -47 42 -60 61 -60 22 0 24 2 13 23 -7 12 -30 48 -51 80 -22
32 -37 65 -34 73 3 8 23 40 44 72 21 31 42 63 46 70 6 9 -22 12 -125 12 l-131
0 17 -27z m165 -18 c0 -9 -45 -75 -51 -75 -3 0 -15 18 -28 40 l-22 40 50 0
c28 0 51 -2 51 -5z"/>
<path d="M2090 2755 c0 -158 1 -165 20 -165 20 0 22 5 34 79 3 18 16 50 29 70
l22 36 3 -92 c3 -91 3 -93 27 -93 l25 0 0 165 0 165 -24 0 c-20 0 -24 -6 -29
-40 -3 -22 -18 -61 -34 -87 l-28 -48 -3 88 c-3 79 -5 87 -22 87 -19 0 -20 -8
-20 -165z"/>
<path d="M2407 2761 c-37 -87 -67 -162 -67 -165 0 -3 10 -6 23 -6 20 0 30 16
77 130 29 72 56 130 60 130 4 0 31 -58 60 -130 47 -114 57 -130 77 -130 13 0
23 3 23 6 0 3 -30 78 -67 165 -62 147 -69 159 -93 159 -24 0 -31 -12 -93 -159z"/>
<path d="M3110 2850 l0 -70 -40 0 c-36 0 -40 -2 -40 -25 0 -22 4 -25 40 -25
l40 0 0 -70 c0 -63 2 -70 20 -70 18 0 20 7 20 70 l0 70 40 0 c36 0 40 3 40 25
0 23 -4 25 -40 25 l-40 0 0 70 c0 63 -2 70 -20 70 -18 0 -20 -7 -20 -70z"/>
<path d="M3520 2755 l0 -165 25 0 25 0 0 165 0 165 -25 0 -25 0 0 -165z"/>
<path d="M3860 2755 l0 -165 24 0 c21 0 24 5 28 49 3 29 16 68 34 97 l29 49 3
-97 c2 -90 4 -98 22 -98 19 0 20 8 20 165 0 158 -1 165 -20 165 -12 0 -20 -7
-20 -18 0 -9 -15 -49 -34 -87 l-35 -70 0 88 c-1 86 -1 87 -26 87 l-25 0 0
-165z"/>
<path d="M4110 2755 l0 -165 126 0 c124 0 125 0 122 23 -3 21 -8 22 -100 25
l-98 3 0 119 0 120 100 0 c93 0 100 1 100 20 0 19 -7 20 -125 20 l-125 0 0
-165z"/>
<path d="M4450 2825 l0 -95 50 0 50 0 0 -70 c0 -68 1 -70 25 -70 24 0 25 2 25
70 l0 70 50 0 50 0 0 95 c0 88 -1 95 -20 95 -18 0 -20 -7 -20 -70 l0 -70 -85
0 -85 0 0 70 c0 63 -2 70 -20 70 -19 0 -20 -7 -20 -95z"/>
<path d="M4870 2898 c-106 -72 -109 -206 -7 -282 45 -33 132 -29 180 7 48 37
67 75 67 135 0 87 -62 152 -152 160 -44 3 -59 0 -88 -20z m127 -33 c50 -14 82
-95 59 -148 -42 -102 -170 -102 -212 -1 -18 43 -8 88 27 124 38 37 65 43 126
25z"/>
<path d="M5585 2897 c-48 -27 -85 -88 -85 -141 0 -84 83 -166 168 -166 103 0
188 106 161 203 -29 108 -148 158 -244 104z m164 -58 c17 -17 31 -39 31 -50 0
-18 -8 -19 -115 -19 -63 0 -115 2 -115 5 0 16 33 66 52 79 13 9 43 16 69 16
40 0 53 -5 78 -31z m31 -118 c0 -27 -54 -78 -88 -83 -61 -9 -120 26 -137 80
-6 22 -6 22 109 22 108 0 116 -1 116 -19z"/>
<path d="M8066 2888 c3 -5 10 -6 15 -3 13 9 11 12 -6 12 -8 0 -12 -4 -9 -9z"/>
<path d="M11894 2855 c-8 -19 3 -35 26 -35 19 0 30 17 23 38 -6 17 -42 15 -49
-3z"/>
<path d="M8052 2841 c-10 -6 -8 -10 9 -14 18 -5 21 -9 12 -18 -9 -9 -16 -9
-28 1 -12 10 -15 10 -15 -3 0 -19 27 -47 44 -47 7 0 21 9 31 20 17 18 17 21 1
45 -17 26 -32 31 -54 16z"/>
<path d="M10934 2835 c-3 -8 4 -26 15 -41 12 -15 21 -30 21 -34 0 -4 -21 -13
-46 -20 -60 -17 -74 -33 -74 -84 0 -51 14 -66 70 -73 33 -5 38 -8 29 -19 -9
-11 -7 -14 9 -14 11 0 25 7 32 15 9 11 34 15 101 15 73 0 90 3 98 18 9 16 11
16 23 0 10 -13 31 -17 94 -19 45 -1 86 1 93 5 20 13 13 100 -9 124 -24 25 -31
27 -48 10 -19 -19 -14 -49 8 -55 11 -3 20 -11 20 -17 0 -9 -17 -11 -57 -8 -46
3 -62 9 -79 29 l-21 24 -17 -26 c-16 -25 -20 -26 -99 -23 l-82 3 -3 89 c-2 50
-8 96 -14 103 -14 18 -57 16 -64 -2z m36 -166 c0 -27 -3 -29 -36 -29 -31 0
-35 3 -32 22 3 22 45 51 60 42 4 -3 8 -18 8 -35z"/>
<path d="M7958 2833 c7 -3 16 -2 19 1 4 3 -2 6 -13 5 -11 0 -14 -3 -6 -6z"/>
<path d="M8165 2829 c-11 -16 -1 -19 13 -3 7 8 8 14 3 14 -5 0 -13 -5 -16 -11z"/>
<path d="M8220 2771 c0 -8 -7 -11 -17 -6 -15 5 -16 4 -5 -6 9 -10 15 -10 24
-1 6 6 9 15 5 19 -4 3 -7 1 -7 -6z"/>
<path d="M7825 2741 c3 -6 -2 -14 -11 -19 -11 -6 -13 -11 -5 -16 6 -4 16 -4
21 -1 13 8 13 45 -1 45 -5 0 -8 -4 -4 -9z"/>
<path d="M8060 2735 c-11 -13 -10 -14 4 -9 11 4 16 1 16 -10 0 -9 -8 -16 -17
-16 -13 0 -14 -3 -5 -12 10 -9 16 -9 28 4 15 14 15 18 2 37 -14 19 -17 20 -28
6z"/>
<path d="M8306 2742 c-10 -17 17 -48 33 -38 16 10 13 26 -3 20 -9 -3 -16 2
-18 13 -3 14 -5 15 -12 5z"/>
<path d="M1551 2714 c-28 -35 -26 -69 4 -99 30 -30 64 -32 99 -4 30 24 35 72
10 107 -23 33 -86 31 -113 -4z m83 -20 c19 -18 19 -20 6 -45 -16 -29 -58 -25
-66 6 -11 45 29 71 60 39z"/>
<path d="M7919 2729 c5 -6 7 -19 4 -28 -3 -11 -2 -12 4 -3 5 6 18 19 29 28 18
15 18 15 -2 5 -13 -6 -25 -7 -32 -1 -8 7 -9 7 -3 -1z"/>
<path d="M8170 2736 c0 -2 7 -7 16 -10 8 -3 12 -2 9 4 -6 10 -25 14 -25 6z"/>
<path d="M7713 2698 c1 -7 -4 -12 -10 -10 -19 3 -16 -15 4 -22 21 -8 38 8 30
28 -7 19 -28 22 -24 4z"/>
<path d="M8404 2699 c-3 -6 1 -18 9 -27 13 -13 19 -13 31 -2 20 16 21 31 1 24
-8 -4 -15 -1 -15 5 0 14 -17 14 -26 0z"/>
<path d="M8163 2685 c-3 -9 -3 -18 -1 -21 3 -3 8 4 11 16 6 23 -1 27 -10 5z"/>
<path d="M8055 2661 c-8 -15 3 -31 21 -31 9 0 14 7 12 17 -4 20 -24 28 -33 14z
m20 -11 c3 -5 1 -10 -4 -10 -6 0 -11 5 -11 10 0 6 2 10 4 10 3 0 8 -4 11 -10z"/>
<path d="M7943 2623 c18 -5 24 -23 8 -23 -5 0 -16 -3 -25 -6 -11 -4 -16 -1
-16 10 0 10 -8 16 -21 16 -17 0 -19 -3 -10 -14 7 -9 8 -17 2 -20 -5 -3 -12 0
-15 6 -3 7 -4 4 -3 -7 3 -21 7 -22 79 -5 43 10 47 14 38 31 -6 11 -20 18 -33
18 -17 -1 -18 -2 -4 -6z"/>
<path d="M8170 2611 c0 -15 13 -23 56 -36 31 -9 58 -14 61 -11 8 8 -8 27 -18
21 -5 -4 -9 1 -9 10 0 10 5 13 12 9 7 -4 8 -3 4 4 -10 17 -36 15 -42 -3 -7
-17 -13 -18 -34 -5 -13 9 -13 11 0 20 12 8 11 10 -7 10 -16 0 -23 -6 -23 -19z"/>
<path d="M8624 2615 c-11 -8 -26 -15 -35 -15 -9 0 -20 -8 -24 -17 -5 -15 -4
-16 6 -5 19 18 39 15 39 -8 0 -13 -5 -18 -15 -13 -16 5 -44 -22 -45 -42 0 -5
4 -4 9 4 5 8 16 11 30 6 15 -4 21 -2 21 9 0 8 9 20 21 26 19 11 20 13 4 30
-13 15 -14 18 -1 23 17 7 26 -1 26 -24 0 -9 6 -19 14 -22 19 -7 31 24 14 35
-38 25 -46 27 -64 13z"/>
<path d="M7704 2603 c-3 -13 -11 -20 -17 -16 -6 3 -7 1 -3 -5 9 -14 16 -15 35
-3 10 7 11 13 2 27 -10 18 -11 18 -17 -3z"/>
<path d="M8065 2610 c-3 -5 0 -10 7 -10 8 0 9 -3 3 -8 -6 -4 -12 -20 -14 -37
-2 -24 -1 -27 11 -17 8 7 15 25 16 42 1 31 -12 48 -23 30z"/>
<path d="M8425 2608 c-12 -31 24 -54 41 -26 4 7 3 8 -5 4 -7 -4 -15 2 -20 16
-8 20 -10 21 -16 6z"/>
<path d="M7413 2593 c19 -5 22 -14 7 -29 -12 -12 4 -39 19 -30 29 19 5 69 -32
65 -7 -1 -4 -3 6 -6z"/>
<path d="M7467 2589 c7 -7 15 -10 18 -7 3 3 -2 9 -12 12 -14 6 -15 5 -6 -5z"/>
<path d="M7804 2589 c-3 -5 0 -8 7 -7 22 5 20 -19 -3 -26 -13 -4 -18 -9 -12
-12 20 -8 64 14 58 30 -7 17 -42 28 -50 15z"/>
<path d="M8313 2593 c-18 -7 -16 -40 3 -47 29 -11 39 -6 19 10 -16 12 -17 16
-6 23 15 10 2 21 -16 14z"/>
<path d="M7520 2576 c0 -2 8 -10 18 -17 15 -13 16 -12 3 4 -13 16 -21 21 -21
13z"/>
<path d="M7470 2555 c-7 -8 -11 -15 -9 -16 35 -7 39 -6 39 12 0 23 -13 25 -30
4z"/>
<path d="M8661 2539 c-1 -9 -8 -22 -16 -29 -15 -13 -11 -35 6 -25 5 4 9 -1 9
-9 0 -8 4 -17 10 -21 5 -3 9 6 8 22 -1 15 1 39 6 53 5 17 4 20 -2 11 -8 -11
-10 -11 -15 0 -4 10 -6 10 -6 -2z"/>
<path d="M8955 2533 c-4 -10 -8 -35 -10 -55 -2 -31 1 -38 16 -38 15 0 19 7 18
33 0 28 -2 29 -10 12 -7 -15 -8 -9 -4 23 6 44 2 54 -10 25z"/>
<path d="M7517 2533 c-4 -3 -7 -15 -7 -25 0 -16 3 -17 22 -7 16 9 23 9 26 0 2
-6 9 -11 15 -11 7 0 0 11 -15 25 -30 27 -32 28 -41 18z"/>
<path d="M7762 2522 c2 -9 -3 -16 -9 -14 -7 1 -13 -3 -13 -9 0 -6 10 -9 22 -7
27 4 36 33 13 42 -11 4 -15 1 -13 -12z"/>
<path d="M8362 2527 c-6 -7 -7 -19 -3 -26 10 -15 43 -11 49 7 2 8 -2 10 -14 5
-13 -5 -16 -3 -11 10 8 20 -6 23 -21 4z"/>
<path d="M7943 2519 c-5 -5 -21 -11 -34 -12 -13 0 -27 -5 -30 -10 -4 -5 -15
-4 -27 2 -17 9 -19 8 -15 -9 3 -11 10 -20 15 -20 5 0 6 5 2 12 -4 6 -3 9 2 5
14 -8 99 17 102 31 3 15 -1 15 -15 1z"/>
<path d="M7985 2519 c-12 -4 23 -8 85 -8 58 -1 130 -7 160 -15 36 -10 61 -11
72 -5 26 14 22 20 -7 9 -15 -6 -26 -6 -30 0 -4 6 -19 10 -36 10 -16 0 -29 3
-29 8 0 10 -190 11 -215 1z"/>
<path d="M8984 2508 c3 -13 6 -31 6 -40 0 -10 5 -18 10 -18 6 0 10 11 10 24 0
14 5 28 11 32 8 4 7 9 -2 15 -26 16 -42 10 -35 -13z"/>
<path d="M11227 2523 c-4 -3 -7 -15 -7 -25 0 -21 45 -26 52 -5 11 28 -24 52
-45 30z"/>
<path d="M11380 2515 c-11 -13 -11 -18 2 -31 20 -20 50 -7 46 20 -4 26 -30 32
-48 11z"/>
<path d="M8901 2505 c-1 -8 -2 -24 -3 -34 -2 -15 -5 -17 -15 -9 -25 20 -23 2
1 -21 30 -29 45 -21 40 21 -1 18 -3 39 -3 46 -1 17 -17 15 -20 -3z"/>
<path d="M9060 2499 c0 -11 -4 -29 -10 -39 -7 -13 -6 -19 3 -23 15 -6 41 29
32 43 -3 4 -1 10 5 12 6 2 1 9 -10 16 -18 11 -20 10 -20 -9z"/>
<path d="M7416 2484 c-21 -20 -20 -23 3 -17 11 3 21 -2 25 -12 4 -12 0 -19
-15 -22 -15 -4 -17 -8 -8 -14 17 -10 59 30 59 56 0 15 -3 16 -9 7 -7 -11 -9
-11 -14 2 -8 20 -21 20 -41 0z"/>
<path d="M7974 2470 c1 -16 -1 -30 -6 -30 -7 0 -12 23 -9 43 2 12 -36 8 -79
-9 -39 -16 -51 -36 -30 -49 8 -5 7 -11 -1 -21 -11 -13 -9 -13 14 -3 15 7 24
16 21 21 -3 5 7 6 23 3 19 -5 24 -4 14 3 -9 7 -10 12 -2 16 6 4 11 12 11 17 0
6 -4 7 -10 4 -5 -3 -10 -1 -10 4 0 16 16 13 30 -4 10 -12 10 -15 -1 -15 -8 0
-9 -3 -3 -9 5 -5 82 -11 171 -13 89 -1 157 -6 151 -9 -5 -3 1 -9 13 -12 13 -4
25 -4 28 -2 2 3 -1 5 -8 5 -9 0 -8 7 3 22 22 31 20 46 -6 46 -13 0 -40 3 -60
7 -26 5 -38 4 -38 -4 0 -6 5 -11 12 -11 6 0 9 -3 5 -6 -3 -3 -15 0 -26 8 -12
8 -18 18 -14 21 3 4 -39 7 -94 7 l-101 0 2 -30z m48 -5 c3 -15 1 -25 -6 -25
-6 0 -11 11 -11 25 0 14 3 25 6 25 4 0 9 -11 11 -25z m58 15 c0 -5 -2 -10 -4
-10 -3 0 -8 5 -11 10 -3 6 -1 10 4 10 6 0 11 -4 11 -10z m66 1 c-4 -5 0 -12 6
-14 8 -4 9 -6 2 -6 -6 -1 -17 6 -24 14 -10 12 -9 15 4 15 10 0 15 -4 12 -9z
m-96 -11 c0 -5 -4 -10 -10 -10 -5 0 -10 5 -10 10 0 6 5 10 10 10 6 0 10 -4 10
-10z m60 6 c0 -3 -4 -8 -10 -11 -5 -3 -10 -1 -10 4 0 6 5 11 10 11 6 0 10 -2
10 -4z m130 0 c0 -3 -4 -8 -10 -11 -5 -3 -10 -1 -10 4 0 6 5 11 10 11 6 0 10
-2 10 -4z m-341 -29 c0 -9 -2 -9 -5 0 -3 7 -13 9 -22 6 -14 -4 -14 -3 -2 5 16
12 30 7 29 -11z m186 3 c3 -5 -1 -10 -10 -10 -9 0 -13 5 -10 10 3 6 8 10 10
10 2 0 7 -4 10 -10z m145 -10 c0 -5 -8 -10 -17 -10 -15 0 -16 2 -3 10 19 12
20 12 20 0z"/>
<path d="M8680 2490 c0 -5 5 -10 11 -10 5 0 7 5 4 10 -3 6 -8 10 -11 10 -2 0
-4 -4 -4 -10z"/>
<path d="M8715 2490 c-3 -5 -1 -10 4 -10 6 0 11 5 11 10 0 6 -2 10 -4 10 -3 0
-8 -4 -11 -10z"/>
<path d="M9020 2470 c0 -11 2 -20 4 -20 2 0 6 9 9 20 3 11 1 20 -4 20 -5 0 -9
-9 -9 -20z"/>
<path d="M7180 2450 c0 -5 19 -10 43 -10 31 0 38 3 27 10 -20 13 -70 13 -70 0z"/>
<path d="M7495 2435 c-11 -14 -35 -32 -52 -42 -19 -10 -41 -34 -51 -55 l-18
-38 1 44 c0 24 3 48 8 52 10 10 9 24 -1 24 -14 0 -32 -48 -25 -66 5 -14 2 -16
-15 -12 -27 7 -28 0 -4 -18 29 -23 -4 -36 -47 -18 -42 18 -69 10 -77 -21 -9
-38 12 -65 51 -65 18 0 40 -2 48 -5 19 -8 69 46 97 105 13 28 27 50 31 50 12
0 69 50 80 71 14 27 -2 23 -26 -6z m-125 -154 c0 -12 -58 -41 -82 -41 -11 0
-18 7 -18 20 0 11 7 20 15 20 8 0 15 -7 15 -16 0 -9 5 -13 13 -10 6 3 20 9 30
12 9 4 17 10 17 15 0 5 2 9 5 9 3 0 5 -4 5 -9z"/>
<path d="M9098 2446 c-24 -18 -23 -35 2 -29 11 3 20 0 20 -6 0 -6 7 -11 15
-11 8 0 15 5 15 10 0 6 -5 10 -11 10 -6 0 -8 9 -4 20 7 23 -11 26 -37 6z"/>
<path d="M7087 2429 c-4 -13 -1 -27 6 -32 7 -5 -5 -7 -30 -5 -24 2 -43 0 -43
-4 0 -5 9 -8 19 -8 11 0 22 -4 25 -8 3 -5 -18 -7 -47 -4 -36 3 -49 1 -42 -6 6
-6 21 -12 34 -14 45 -6 35 -27 -15 -30 -53 -3 -59 -14 -42 -74 8 -29 6 -39 -8
-55 -9 -10 -25 -19 -35 -19 -10 0 -21 -5 -25 -11 -5 -9 1 -10 19 -5 22 5 29 2
42 -25 9 -17 14 -41 11 -54 -4 -14 -1 -25 7 -28 7 -3 5 -6 -5 -6 -23 -1 -23
-10 -1 -26 9 -7 17 -25 18 -41 0 -30 25 -47 26 -17 0 11 3 13 6 5 7 -17 -15
-42 -38 -42 -11 0 -19 -5 -19 -11 0 -5 4 -8 9 -5 15 10 19 -57 5 -104 -7 -24
-11 -46 -9 -48 7 -7 25 9 25 24 0 20 23 17 43 -6 12 -15 29 -20 62 -20 58 0
58 16 0 23 -72 8 -102 47 -75 98 9 16 15 17 31 9 11 -6 24 -8 29 -5 6 4 7 -1
3 -11 -4 -12 -3 -15 6 -10 8 5 14 0 18 -13 4 -16 11 -20 24 -16 19 6 90 -26
119 -54 13 -13 10 -13 -20 -7 -19 5 -46 10 -60 13 l-25 5 22 -16 c11 -9 37
-17 57 -18 l35 -3 -22 -21 c-12 -11 -26 -21 -31 -21 -5 -1 -12 -7 -16 -13 -10
-17 -100 -26 -100 -11 0 7 -4 10 -9 7 -5 -3 -21 6 -35 19 -35 33 -40 31 -21
-6 9 -17 32 -40 51 -51 19 -11 34 -23 34 -26 0 -3 -3 -3 -6 1 -3 3 -20 0 -37
-6 -31 -10 -30 -11 43 -23 72 -12 108 -11 58 1 -40 10 -25 45 34 80 68 41 94
79 89 133 -1 15 -31 16 -31 1 0 -13 -42 13 -85 53 -33 30 -45 35 -45 16 0 -20
-18 5 -23 32 -4 25 -4 25 -12 3 -10 -32 -25 -29 -25 5 0 34 23 71 34 54 11
-19 39 -15 32 4 -8 22 15 84 31 84 7 0 10 6 7 14 -3 8 -1 17 5 20 5 4 13 -3
16 -14 5 -17 10 -19 21 -9 11 9 14 8 14 -5 0 -9 -7 -16 -15 -16 -8 0 -15 -2
-15 -5 0 -9 34 -59 45 -67 5 -4 6 -8 1 -8 -5 0 3 -9 17 -20 31 -25 44 -26 26
-2 -11 14 -10 13 9 -2 12 -11 22 -14 22 -8 0 6 3 18 7 28 4 11 3 15 -4 11 -6
-4 -14 1 -19 11 -10 24 -11 96 0 103 5 4 2 17 -6 28 -15 22 -16 21 -22 -13 -4
-19 -11 -38 -17 -42 -7 -4 -8 6 -4 29 8 41 -11 89 -26 66 -6 -10 -9 -8 -9 9 0
12 -5 22 -11 22 -6 0 -8 -9 -4 -22 5 -16 0 -13 -14 10 -28 44 -27 45 17 20 20
-12 49 -28 64 -35 15 -8 30 -18 33 -24 11 -17 20 -9 20 16 0 20 -5 25 -26 25
-14 0 -34 7 -45 15 -10 8 -26 15 -35 15 -9 0 -19 10 -22 22 -5 19 -8 20 -23 7
-16 -13 -17 -11 -12 19 6 42 -4 41 -28 -3 -12 -23 -28 -36 -47 -41 -35 -7 -43
-1 -20 17 11 9 14 10 9 2 -10 -17 6 -16 30 1 10 8 16 17 12 21 -4 4 4 19 18
34 13 14 30 41 36 59 7 18 17 31 23 29 36 -14 52 -15 65 -7 13 9 12 13 -5 26
-11 8 -19 20 -17 25 3 11 4 11 -35 0 -24 -7 -35 -6 -44 5 -7 8 -18 13 -24 10
-7 -2 -17 0 -22 5 -7 7 -12 3 -16 -12z m43 -69 c-13 -9 -13 -11 0 -20 17 -11
1 -14 -24 -4 -13 5 -14 9 -5 20 6 8 19 14 28 14 14 0 14 -2 1 -10z m-132 -93
c-18 -18 -35 -28 -37 -23 -5 11 51 65 62 59 4 -2 -7 -19 -25 -36z m22 -32
c-27 -29 -37 -27 -20 4 6 12 18 21 27 21 13 0 12 -5 -7 -25z m100 -55 c-16
-31 -23 -18 -8 15 7 15 14 23 16 17 2 -6 -2 -21 -8 -32z m-132 -16 c4 2 8 -12
9 -32 2 -33 1 -35 -9 -14 -6 12 -17 22 -25 22 -17 0 -17 37 0 43 6 2 13 -2 15
-10 2 -7 7 -11 10 -9z m62 -7 c0 -4 -6 -2 -14 5 -8 7 -12 17 -9 22 5 8 23 -12
23 -27z m89 -14 c0 -25 -1 -25 -8 -8 -5 11 -7 23 -4 28 8 14 13 7 12 -20z m31
-13 c-6 -11 -13 -20 -16 -20 -2 0 0 9 6 20 6 11 13 20 16 20 2 0 0 -9 -6 -20z
m-94 -42 c-4 -27 -17 -53 -33 -68 -20 -19 -24 -21 -19 -7 3 10 6 32 6 48 0 19
5 29 15 29 8 0 14 3 14 8 -3 19 2 32 12 32 8 0 9 -14 5 -42z m49 -8 c3 -5 -1
-20 -9 -32 -11 -15 -16 -18 -16 -8 0 13 -2 13 -11 0 -9 -13 -10 -13 -5 0 3 8
9 23 12 33 7 19 20 22 29 7z m145 -44 c0 -27 -26 -44 -27 -18 0 16 14 42 23
42 2 0 4 -11 4 -24z m-263 -8 c-3 -8 -6 -5 -6 6 -1 11 2 17 5 13 3 -3 4 -12 1
-19z m50 -61 c-8 -13 -17 -34 -20 -48 -4 -21 -4 -20 -6 6 0 17 6 41 15 53 21
30 31 20 11 -11z"/>
<path d="M8831 2433 c-12 -13 -12 -15 6 -9 15 5 21 -1 31 -27 13 -37 16 -57 4
-42 -4 6 -20 16 -35 23 -16 7 -31 21 -34 32 -3 11 -9 20 -14 20 -16 0 -9 -30
12 -51 11 -11 19 -30 17 -42 -3 -25 -38 -37 -38 -13 0 25 -45 101 -61 102 -8
1 -23 5 -33 10 -14 5 -17 4 -12 -5 5 -7 18 -16 31 -21 14 -5 33 -31 50 -65 21
-46 30 -56 46 -52 10 3 19 2 19 -3 0 -12 -30 -21 -43 -13 -7 4 -6 0 1 -10 9
-11 11 -27 7 -49 -7 -29 -6 -31 9 -19 9 7 16 18 16 23 0 14 49 75 66 82 9 4
14 -1 14 -14 0 -11 -6 -20 -14 -20 -23 0 -46 -29 -46 -57 0 -21 2 -23 15 -13
8 7 12 17 8 23 -3 6 -1 7 5 3 7 -4 12 -25 12 -47 0 -38 13 -52 23 -26 3 6 6 2
6 -10 1 -12 -6 -28 -14 -37 -8 -8 -15 -22 -15 -30 0 -9 7 -16 15 -16 17 0 20
-16 5 -25 -6 -4 -7 -11 -4 -17 5 -7 -2 -9 -20 -4 -35 9 -34 -11 2 -45 22 -21
34 -25 62 -21 35 4 70 27 70 44 0 5 -12 0 -27 -11 -25 -18 -33 -19 -70 -9 -24
7 -43 15 -43 19 0 4 16 3 35 -2 27 -8 40 -6 62 7 36 23 62 55 63 77 0 10 8 17
20 17 11 0 20 -5 20 -11 0 -8 4 -8 14 0 10 9 15 8 20 -4 3 -8 15 -15 26 -15
11 0 23 -7 26 -15 4 -8 10 -12 15 -9 5 3 9 -1 9 -9 0 -8 7 -17 15 -21 23 -8
18 -32 -11 -55 l-27 -21 28 0 c27 0 27 -1 23 -45 -8 -67 -30 -95 -76 -95 -20
0 -44 5 -52 10 -12 8 -12 10 5 10 11 0 25 11 32 25 14 31 12 31 -37 0 -22 -14
-46 -25 -53 -25 -18 0 -28 -10 -21 -21 3 -5 14 -5 24 1 13 7 21 7 25 -1 10
-15 -3 -56 -19 -62 -10 -4 -13 -1 -9 9 3 7 0 14 -7 14 -6 0 -18 7 -26 15 -9 8
-12 15 -8 15 3 0 2 6 -4 13 -26 31 21 115 66 117 18 0 92 49 92 60 0 15 -27
12 -33 -3 -3 -8 -27 -22 -54 -32 -26 -10 -51 -24 -56 -31 -4 -7 -14 -11 -22
-7 -8 3 -26 -2 -40 -11 -27 -18 -45 -14 -45 10 0 8 -5 12 -10 9 -6 -4 -18 -1
-26 6 -25 21 -25 4 1 -31 14 -19 25 -38 25 -42 0 -5 33 -43 73 -84 72 -76 86
-103 57 -116 -12 -5 -12 -7 3 -7 9 -1 17 -5 17 -11 0 -5 6 -10 14 -10 8 0 16
-6 19 -12 2 -7 7 -10 11 -7 13 12 -6 39 -28 39 -16 0 -18 2 -7 9 11 7 11 14
-2 40 -14 28 -14 31 1 32 30 2 47 -3 65 -18 22 -20 22 -5 0 19 -16 18 -16 18
0 12 10 -3 17 -1 17 6 0 6 8 9 19 5 11 -3 24 1 32 12 12 15 12 16 -3 10 -10
-3 -20 -2 -23 4 -4 5 -3 9 2 8 23 -4 43 2 43 14 0 7 8 17 18 23 15 10 17 26
16 117 -1 75 -5 112 -15 124 -12 15 -12 16 4 10 13 -5 17 -3 14 5 -2 7 2 28
10 46 7 17 11 32 8 32 -3 0 -10 -10 -15 -22 -8 -21 -9 -20 -9 10 -1 17 -5 32
-10 32 -4 0 -6 -11 -4 -24 3 -13 0 -32 -6 -43 -9 -15 -10 -12 -11 20 0 21 -7
54 -15 75 -13 32 -13 34 0 18 8 -10 16 -24 18 -30 3 -7 9 -7 21 3 15 13 15 15
-6 25 -19 10 -38 37 -84 124 -3 7 -4 15 -1 19 13 12 39 -8 53 -42 17 -42 27
-46 18 -7 -3 15 -17 37 -31 50 -22 20 -23 22 -4 22 11 0 23 5 26 10 3 6 -5 10
-19 10 -14 0 -29 -8 -35 -17 -8 -16 -11 -15 -28 5 -16 20 -22 22 -50 12 -34
-12 -46 -29 -33 -50 7 -11 15 -8 36 13 31 31 47 24 42 -19 -2 -22 -8 -28 -21
-26 -15 3 -17 0 -8 -17 14 -25 14 -58 1 -66 -7 -4 -8 3 -4 20 4 18 1 32 -11
45 -19 21 -41 28 -30 10 3 -6 -5 -10 -19 -10 -21 0 -25 5 -28 37 -2 31 -9 41
-33 52 -16 8 -43 27 -58 43 -33 33 -28 31 -46 11z m109 -113 c6 0 5 -9 -2 -20
-19 -30 -32 -19 -35 31 l-2 44 15 -27 c8 -16 19 -28 24 -28z m195 -61 l16 -30
-25 16 c-14 10 -23 22 -19 31 7 20 10 18 28 -17z m-162 -5 c-5 -14 -25 -19
-36 -8 -12 12 5 32 23 27 11 -3 16 -11 13 -19z m59 -6 c-6 -6 -16 -8 -22 -6
-9 3 -7 9 6 22 13 13 19 15 22 6 2 -6 0 -16 -6 -22z m-87 -58 c11 -21 10 -33
-6 -80 l-18 -55 2 45 c1 25 7 51 12 59 5 10 4 16 -3 19 -7 2 -12 10 -12 18 0
8 -7 17 -15 20 -8 4 -15 12 -15 20 0 19 37 -12 55 -46z m165 15 c5 3 5 -6 2
-20 -4 -13 -11 -26 -17 -27 -12 -4 -23 49 -16 77 4 17 6 16 14 -8 5 -15 12
-25 17 -22z m-66 -9 c-10 -26 -74 -29 -74 -4 0 6 14 8 30 6 17 -3 33 -1 36 4
8 13 14 9 8 -6z m116 -66 c0 -19 -4 -41 -9 -48 -5 -8 -8 10 -7 46 1 62 16 64
16 2z m-97 7 c-5 -28 -6 -28 -20 -7 -12 17 -12 24 -2 36 17 20 29 5 22 -29z
m64 1 c-3 -8 -6 -5 -6 6 -1 11 2 17 5 13 3 -3 4 -12 1 -19z m-150 -56 c-14
-18 -15 -12 -9 28 5 33 6 33 12 10 4 -14 2 -31 -3 -38z m38 39 c3 -5 1 -12 -4
-15 -5 -3 -11 1 -15 9 -6 16 9 21 19 6z m-11 -66 c-4 -8 -11 -15 -16 -15 -6 0
-5 6 2 15 7 8 14 15 16 15 2 0 1 -7 -2 -15z m-66 -35 c-13 -20 -28 -27 -28
-12 0 10 22 32 32 32 5 0 3 -9 -4 -20z m12 -232 c0 -12 -3 -18 -7 -14 -11 10
-12 36 -2 36 5 0 9 -10 9 -22z m170 -30 c0 -5 -13 -8 -30 -8 -16 0 -30 4 -30
9 0 4 13 8 30 7 16 -1 30 -4 30 -8z"/>
<path d="M8078 2413 c12 -2 30 -2 40 0 9 3 -1 5 -23 4 -22 0 -30 -2 -17 -4z"/>
<path d="M7925 2403 c-45 -10 -86 -25 -81 -30 3 -3 25 -7 48 -8 32 -2 37 -1
18 4 -20 6 -11 10 43 16 37 4 67 11 67 16 0 9 -59 10 -95 2z"/>
<path d="M8160 2402 c0 -5 21 -13 48 -18 l47 -10 -55 -12 c-40 -8 -44 -10 -15
-7 22 2 55 7 73 10 26 6 32 4 32 -9 0 -11 -12 -18 -40 -22 -22 -4 -38 -9 -36
-13 2 -3 -63 -6 -144 -6 -81 0 -143 4 -137 8 7 5 -2 7 -20 5 -18 -3 -29 0 -26
5 3 5 -4 6 -17 2 -15 -5 -20 -4 -16 4 4 6 0 11 -10 11 -14 0 -15 -3 -6 -12 14
-14 16 -64 3 -72 -5 -3 -11 3 -14 15 -4 16 -11 18 -32 13 -24 -6 -26 -5 -19
21 5 20 4 26 -5 21 -6 -4 -11 -15 -11 -24 0 -9 -9 -30 -20 -47 l-20 -30 0 48
c0 38 -3 47 -17 47 -13 0 -14 -3 -5 -12 14 -14 16 -94 2 -103 -5 -3 -10 -1
-10 5 0 20 -32 80 -40 75 -4 -2 3 -26 16 -52 32 -63 33 -99 1 -52 -14 21 -32
35 -47 37 l-25 3 28 -22 c30 -23 67 -87 67 -116 0 -9 -13 3 -30 30 -16 26 -33
47 -37 48 -5 0 -19 3 -33 5 -21 4 -18 -1 19 -33 46 -39 81 -101 80 -143 0 -16
-6 -6 -19 30 -31 90 -94 126 -141 79 -16 -16 -20 -29 -16 -55 10 -58 -27 -35
-39 24 -4 21 -3 32 5 32 6 0 11 7 11 16 0 8 4 13 9 10 4 -3 19 6 31 19 l23 25
-24 0 c-13 0 -33 7 -43 15 -11 8 -25 15 -30 15 -6 -1 2 -8 17 -16 16 -8 25
-20 21 -26 -5 -7 0 -9 15 -5 18 4 20 3 10 -9 -12 -14 -14 -14 -64 19 l-30 19
23 -21 c31 -27 19 -48 -15 -26 -14 9 -27 14 -31 11 -3 -3 -1 -6 4 -6 27 -1 48
-32 46 -68 -3 -49 33 -88 72 -78 28 7 33 -2 14 -23 -11 -11 -9 -11 10 -2 19
10 28 9 48 -4 46 -30 61 -115 24 -135 -28 -15 -84 4 -98 33 -8 16 -11 18 -11
6 -1 -9 -8 -22 -16 -29 -8 -7 -15 -20 -15 -28 0 -13 2 -13 13 2 12 16 15 16
58 -2 25 -11 56 -33 69 -48 23 -29 24 -23 5 31 -7 20 -6 20 9 1 18 -22 22 -91
6 -101 -5 -3 -10 0 -10 8 0 29 -100 102 -108 78 -2 -6 -12 -11 -22 -11 -10 0
-22 -4 -25 -10 -4 -6 8 -10 30 -10 42 0 81 -18 113 -53 21 -22 22 -28 13 -68
-6 -24 -11 -59 -11 -77 0 -30 -2 -32 -20 -22 -12 6 -20 21 -20 36 0 14 4 22
10 19 23 -14 8 19 -20 45 -38 36 -80 46 -117 28 -23 -11 -28 -20 -28 -48 0
-30 4 -36 24 -38 14 -2 30 3 36 11 14 19 31 10 44 -23 l10 -25 0 26 c1 37 -40
73 -78 67 -17 -3 -31 -1 -31 4 0 4 18 8 41 8 31 0 47 -6 70 -29 46 -46 35
-101 -25 -126 -36 -15 -71 -10 -100 14 -18 15 -18 15 -7 -6 6 -13 24 -29 39
-37 l27 -15 -31 -1 c-16 0 -35 5 -42 12 -16 16 -15 -4 2 -27 7 -10 11 -28 8
-39 -5 -18 0 -17 30 10 46 40 102 51 152 30 20 -8 36 -11 36 -5 0 13 -62 39
-92 39 l-22 0 22 15 c16 12 27 13 41 5 32 -16 38 -11 11 10 -29 22 -23 36 7
15 12 -8 28 -34 36 -57 8 -24 18 -51 22 -61 7 -16 3 -15 -31 5 -25 15 -54 22
-90 23 -45 0 -58 -4 -80 -27 -22 -21 -24 -29 -14 -40 11 -11 17 -9 41 14 88
89 220 -47 136 -139 -32 -36 -87 -25 -87 16 0 12 3 12 12 3 15 -15 51 -15 66
0 22 22 14 75 -14 97 -44 35 -119 23 -124 -19 -5 -34 0 -41 28 -38 23 2 27 7
25 31 -2 24 2 27 28 27 31 0 54 -30 29 -38 -24 -8 -70 -62 -70 -82 0 -33 29
-53 69 -46 22 3 31 2 22 -3 -11 -7 -11 -9 0 -13 9 -3 8 -6 -5 -11 -11 -4 -15
-3 -10 4 4 7 1 10 -7 7 -8 -3 -49 12 -91 34 -43 22 -83 38 -90 35 -8 -3 -1 -9
15 -16 15 -6 53 -23 83 -38 l54 -26 -23 -30 c-16 -22 -38 -34 -78 -44 -72 -18
-154 -59 -177 -87 l-18 -24 -17 29 -16 29 37 1 37 1 -40 8 c-85 16 -154 -13
-142 -61 3 -12 1 -31 -5 -42 -8 -15 -5 -26 11 -48 12 -15 21 -37 21 -48 0 -11
8 -28 18 -38 11 -10 22 -26 25 -36 5 -14 16 -18 49 -17 24 1 53 -1 65 -5 21
-7 21 -8 -13 -41 -19 -19 -34 -40 -34 -45 0 -6 15 -25 33 -43 18 -17 43 -45
56 -63 l22 -32 102 -3 c101 -3 102 -3 102 -28 0 -14 5 -28 10 -32 6 -5 4 -8
-5 -8 -13 0 -13 -1 0 -10 12 -8 12 -10 -3 -16 -9 -3 -14 -10 -12 -15 9 -13
-41 -22 -83 -14 -70 12 -139 53 -222 128 -83 77 -148 117 -189 117 -53 0 -111
-45 -124 -95 -3 -14 -5 -10 -6 11 -1 40 30 79 74 94 19 6 35 15 35 20 0 15
-60 32 -92 26 -33 -6 -88 -51 -88 -70 0 -6 6 -4 13 5 15 19 50 39 71 39 9 0 5
-10 -15 -29 -44 -44 -39 -125 10 -151 17 -9 19 -6 14 28 -5 34 -1 42 28 66 29
24 40 28 81 24 55 -6 87 -26 201 -128 97 -85 163 -114 254 -108 66 4 103 25
103 59 0 9 5 19 11 21 22 7 0 73 -35 107 -31 30 -39 33 -103 34 -45 1 -75 -3
-86 -11 -13 -11 -15 -10 -10 10 l6 23 -23 -20 c-17 -15 -22 -16 -18 -5 3 9 0
24 -8 35 -8 10 -14 15 -14 11 0 -5 -7 -3 -15 4 -8 6 -20 8 -27 4 -10 -6 -10
-5 0 8 11 14 10 18 -4 26 -15 8 -12 13 22 35 21 14 51 29 66 32 16 4 26 11 23
15 -3 5 7 21 22 36 22 21 23 25 8 19 -11 -5 -37 -10 -58 -13 -34 -4 -36 -5
-20 -18 16 -12 15 -13 -14 -14 -22 0 -36 6 -43 20 -10 19 -13 19 -33 5 -12 -8
-33 -15 -47 -15 l-25 1 28 20 c35 27 35 40 -2 26 -23 -8 -33 -8 -45 2 -24 20
-20 28 19 41 19 6 35 17 36 23 0 7 7 -5 16 -25 8 -21 19 -38 25 -38 5 0 6 5 2
12 -4 7 -3 8 5 4 6 -4 9 -12 6 -17 -4 -5 1 -12 9 -15 20 -7 69 4 62 14 -2 4
13 6 34 4 46 -5 80 24 80 66 -1 27 -1 26 -20 -9 -23 -44 -60 -59 -60 -24 0 12
7 28 15 35 8 7 15 22 14 34 l0 21 -9 -21 c-9 -24 -30 -41 -30 -26 0 6 -7 12
-15 16 -13 4 -14 2 -5 -14 16 -30 -4 -60 -41 -60 -22 0 -32 6 -41 25 -6 13
-16 22 -22 19 -6 -3 -4 0 4 8 8 7 16 20 18 28 9 39 44 52 61 23 6 -10 11 -13
11 -6 0 6 3 18 6 27 5 13 -1 16 -26 16 -27 0 -31 2 -20 15 13 16 96 48 148 58
24 5 32 3 32 -8 0 -18 -3 -18 67 0 115 30 345 9 418 -39 21 -14 24 -12 58 33
47 63 103 108 207 166 47 25 95 56 107 67 31 29 38 70 18 107 -16 33 -9 39 25
21 31 -16 43 -50 41 -109 -3 -71 -22 -106 -66 -121 -47 -15 -49 -45 -2 -35 17
4 60 9 95 12 54 4 68 1 105 -20 43 -25 84 -64 76 -71 -2 -3 -31 5 -64 16 -82
28 -258 22 -358 -12 -116 -40 -208 -141 -206 -227 l1 -38 7 35 c10 48 40 102
54 98 24 -8 47 -73 48 -133 1 -57 1 -58 11 -25 12 43 5 90 -22 142 -11 21 -18
44 -15 49 29 45 78 -71 73 -172 -3 -76 6 -84 16 -14 7 52 -6 119 -33 175 l-18
38 46 25 c25 13 71 31 101 38 77 19 273 18 328 -3 37 -14 42 -14 42 0 0 21 75
9 144 -23 51 -24 99 -62 65 -51 -8 2 -28 7 -45 10 -29 4 -31 3 -26 -20 4 -22
7 -23 21 -11 9 7 24 12 33 10 20 -5 33 -37 22 -54 -4 -7 -3 -9 3 -6 6 4 13 -3
16 -14 3 -12 3 -19 0 -16 -2 3 -13 -3 -24 -14 -41 -41 -92 -11 -71 43 l11 30
-25 -17 c-23 -15 -25 -15 -34 10 -11 28 -20 33 -20 10 0 -8 8 -23 18 -33 16
-17 28 -62 16 -62 -18 0 -48 26 -59 53 l-14 32 0 -30 c0 -47 23 -70 69 -68 22
1 42 -2 45 -8 4 -5 17 -9 31 -9 13 0 24 -4 24 -9 0 -16 -41 -40 -58 -34 -13 5
-12 8 4 20 16 12 14 13 -20 13 -20 0 -46 5 -57 10 -12 7 -19 7 -19 1 0 -6 9
-15 20 -21 11 -6 20 -17 20 -24 0 -7 20 -21 44 -30 24 -9 51 -25 61 -35 15
-18 15 -20 -2 -30 -10 -6 -12 -11 -5 -11 6 0 12 -5 12 -11 0 -5 -4 -7 -10 -4
-5 3 -10 1 -10 -6 0 -6 -8 -9 -18 -7 -24 7 -46 -24 -29 -41 18 -18 -5 -13 -25
6 -15 13 -18 14 -13 2 5 -12 -6 -14 -65 -11 -81 5 -122 -8 -150 -48 -36 -50
-19 -130 34 -157 86 -46 214 -1 345 122 83 77 120 102 161 105 52 5 72 -1 97
-26 21 -21 24 -32 20 -60 -5 -29 -3 -35 10 -32 9 2 25 15 36 30 26 35 16 90
-23 130 -16 15 -25 28 -20 28 22 0 67 -23 84 -43 l18 -22 -14 25 c-22 38 -75
62 -123 55 -60 -9 -63 -21 -11 -46 28 -13 53 -33 61 -50 25 -48 17 -52 -23
-10 -75 79 -141 66 -276 -57 -115 -106 -256 -166 -312 -133 -14 8 -15 11 -4
11 9 0 5 6 -10 15 -14 8 -20 14 -13 15 7 0 10 13 8 35 -3 30 0 36 22 41 14 4
57 4 96 1 l70 -6 63 67 c35 37 64 72 64 79 0 6 -12 25 -26 42 -33 39 -19 57
41 53 39 -4 44 -1 73 39 18 24 32 51 32 60 0 9 7 22 15 29 17 14 20 56 5 65
-6 4 -5 13 2 25 10 16 9 23 -10 43 -19 20 -33 24 -92 26 -39 1 -70 -2 -70 -6
0 -5 15 -7 34 -5 l34 4 -16 -34 -17 -34 -18 23 c-27 34 -94 69 -167 89 -43 11
-72 26 -87 43 -13 14 -23 29 -23 32 0 4 34 22 75 40 41 19 75 37 75 42 0 13
-15 8 -72 -23 l-56 -31 5 39 c5 34 1 42 -26 64 -16 14 -36 28 -43 31 -9 4 -8
10 7 22 23 18 56 16 63 -4 3 -9 0 -11 -8 -6 -8 5 -11 2 -8 -10 8 -41 68 -46
68 -5 0 11 -10 30 -21 41 -43 43 -139 -4 -139 -66 0 -34 41 -60 70 -45 26 14
37 6 20 -15 -20 -24 -66 -19 -89 11 -30 39 -27 87 8 126 39 44 97 45 143 2 17
-16 28 -23 24 -16 -4 6 -2 12 3 12 6 0 11 7 11 15 0 21 -53 45 -100 45 -39 0
-112 -29 -125 -50 -9 -14 8 -12 24 2 8 7 5 -2 -5 -19 -17 -32 -44 -45 -44 -22
0 5 10 27 22 49 24 41 65 60 128 60 42 0 100 -28 110 -54 8 -19 9 -19 9 6 1
15 6 30 11 33 19 12 10 25 -12 20 -13 -3 -36 -1 -53 4 l-30 9 31 1 c17 1 38 9
47 19 24 26 21 36 -5 18 -37 -26 -85 -20 -119 14 -23 22 -29 35 -24 52 18 62
77 99 127 79 20 -9 18 -10 -18 -10 -49 -1 -75 -25 -73 -67 1 -22 3 -24 6 -7 6
28 34 54 41 35 3 -10 7 -10 20 0 12 10 14 10 8 1 -5 -9 0 -13 13 -13 12 0 21
3 22 8 0 4 2 16 4 27 5 27 -10 42 -50 49 -45 9 -95 -14 -119 -54 -9 -17 -13
-30 -7 -30 5 0 12 6 15 13 3 6 2 -1 -1 -18 -10 -48 -27 -50 -37 -5 -8 35 -6
44 14 65 35 37 87 58 132 52 33 -4 37 -3 27 9 -7 8 -19 12 -27 9 -9 -3 -19 0
-23 6 -12 19 -60 1 -95 -37 -37 -39 -44 -41 -44 -16 0 46 63 92 130 95 38 1
47 17 10 17 -10 0 -20 5 -22 12 -11 32 -116 -49 -119 -90 -1 -9 -5 -1 -10 18
-9 37 5 100 22 100 5 0 3 -13 -6 -30 -19 -36 -10 -39 16 -7 10 13 39 32 64 41
39 15 48 16 63 4 15 -12 15 -11 -1 14 -9 15 -17 35 -17 45 -1 13 -5 11 -16 -9
-15 -29 -46 -42 -85 -36 -20 2 -24 10 -27 45 -5 68 46 123 85 91 14 -11 15
-10 8 11 -6 20 -4 22 15 16 32 -10 66 18 79 67 7 24 15 49 18 57 4 10 1 12
-10 8 -15 -6 -33 18 -19 26 4 2 1 2 -6 1 -7 -2 -15 3 -19 11 -4 12 -9 13 -18
5 -10 -8 -13 -7 -11 5 1 9 9 20 16 25 8 5 12 11 10 14 -3 2 -18 -6 -34 -19
-26 -21 -28 -25 -14 -39 9 -8 18 -12 22 -9 3 4 6 -1 6 -11 0 -9 4 -15 9 -12
20 13 29 -61 11 -95 -16 -28 -42 -25 -31 4 9 25 5 45 -17 70 -35 40 -109 -1
-135 -76 -11 -30 -16 -35 -16 -19 -1 28 30 91 55 113 11 9 33 24 49 32 l30 16
-30 -1 c-35 -2 -60 -20 -86 -63 -26 -42 -25 -6 1 45 21 42 53 66 72 54 7 -4 8
-3 4 4 -15 24 -56 13 -77 -20 l-21 -33 6 35 c4 19 15 47 26 62 15 20 16 27 6
31 -9 4 -18 -9 -26 -34 -8 -22 -17 -42 -21 -45 -13 -8 -21 60 -10 89 7 17 7
27 1 27 -5 0 -13 -18 -16 -41 -8 -45 -16 -42 -39 16 -15 38 -15 39 -10 7 4
-30 3 -32 -16 -22 -22 12 -54 -4 -43 -21 3 -5 1 -9 -5 -9 -16 0 -24 46 -12 68
6 12 11 25 11 31 0 17 -59 43 -82 35 -14 -4 -18 -2 -14 5 5 7 -4 11 -23 11
-17 0 -31 -4 -31 -8z m-52 -99 c-21 -2 -55 -2 -75 0 -21 2 -4 4 37 4 41 0 58
-2 38 -4z m-294 -32 c4 -5 -3 -7 -14 -4 -23 6 -26 13 -6 13 8 0 17 -4 20 -9z
m546 5 c0 -2 -7 -6 -15 -10 -8 -3 -15 -1 -15 4 0 6 7 10 15 10 8 0 15 -2 15
-4z m-590 -10 c0 -2 -8 -10 -17 -17 -16 -13 -17 -12 -4 4 13 16 21 21 21 13z
m325 -340 c16 -6 16 -6 43 128 10 49 23 91 29 93 9 3 -5 -91 -32 -203 -3 -13
1 -24 9 -27 11 -4 27 26 61 111 26 64 52 120 58 124 6 4 21 -8 34 -27 l23 -34
-58 -90 c-60 -94 -83 -117 -57 -54 8 20 14 38 11 40 -3 3 -36 -71 -36 -82 0
-3 6 -5 14 -5 8 0 40 41 72 90 52 83 74 106 74 79 0 -6 -27 -50 -60 -97 -87
-126 -64 -130 56 -12 117 116 121 95 5 -25 -106 -110 -99 -132 18 -50 52 36
81 51 81 42 0 -8 -34 -36 -75 -63 -73 -48 -93 -74 -57 -74 13 0 14 2 3 9 -10
7 4 21 55 55 38 25 70 42 72 36 2 -6 8 -7 14 -4 6 4 6 -1 -1 -13 -6 -11 -35
-31 -66 -43 -31 -12 -54 -24 -52 -27 3 -2 30 7 61 21 36 16 56 21 56 13 0 -7
-27 -23 -61 -36 -33 -13 -58 -25 -56 -27 2 -3 25 5 51 16 58 25 79 25 74 3 -2
-11 -21 -21 -53 -30 -43 -10 -44 -11 -10 -7 22 3 51 8 65 11 22 6 23 4 12 -9
-11 -13 -11 -19 1 -29 19 -18 10 -52 -12 -44 -9 4 -38 12 -66 18 l-50 12 55
12 55 12 -50 -6 c-61 -8 -82 -8 -207 2 l-97 8 -12 34 c-12 38 -25 36 -34 -7
-6 -29 -9 -30 -58 -30 -68 0 -197 -23 -274 -48 -61 -19 -73 -19 -73 2 0 6 5 4
11 -4 8 -12 10 -8 7 16 l-4 31 49 -9 c27 -5 54 -7 60 -5 7 2 -12 7 -40 11 -53
8 -72 25 -30 27 18 1 16 3 -8 9 -16 4 -24 8 -17 9 6 0 12 8 12 16 0 8 6 15 13
15 8 0 7 3 -3 10 -8 5 -11 12 -8 16 4 3 39 -6 78 -22 49 -19 74 -24 81 -17 7
7 -13 25 -67 59 -42 27 -81 48 -86 46 -4 -1 -8 8 -8 20 0 13 4 19 8 13 4 -5
13 -11 20 -13 7 -1 44 -23 83 -49 106 -70 105 -44 -1 62 -50 49 -90 87 -90 83
0 -3 38 -43 85 -89 47 -45 83 -85 80 -87 -2 -3 -40 19 -84 47 l-80 53 -6 61
c-4 34 -5 87 -3 117 l4 55 2 -61 2 -61 97 -96 c135 -132 143 -114 28 60 -19
29 -30 55 -25 58 5 3 37 -38 71 -90 43 -67 65 -93 72 -86 8 8 -2 42 -32 113
-62 148 -61 139 -10 132 24 -4 45 -7 46 -8 6 -6 44 -208 40 -212 -2 -3 -25 46
-50 108 -25 62 -46 108 -47 102 0 -15 78 -206 90 -218 20 -20 20 22 0 118 -23
112 -23 116 -11 116 5 0 16 -42 26 -92 10 -51 22 -103 26 -116 18 -49 29 -8
29 112 0 67 3 126 8 130 4 4 8 -51 10 -122 2 -103 6 -131 17 -136z m-45 122
c0 -67 -2 -119 -5 -116 -5 4 -45 192 -45 209 0 8 26 23 48 28 1 1 2 -54 2
-121z m73 113 l24 -9 -21 -106 c-11 -58 -24 -106 -28 -106 -4 0 -8 52 -8 115
0 63 2 115 4 115 3 0 16 -4 29 -9z m113 -28 c-36 -98 -81 -203 -86 -203 -6 0
23 170 35 208 3 6 16 12 31 12 21 0 25 -4 20 -17z m-327 -113 c22 -55 41 -106
41 -113 0 -11 -66 82 -105 150 -15 26 -16 34 -6 47 8 9 17 16 21 16 4 0 26
-45 49 -100z m-282 47 c25 -23 57 -108 50 -134 -3 -13 -5 -10 -6 7 -4 77 -63
139 -118 125 -27 -6 -31 10 -5 24 21 13 50 5 79 -22z m977 17 c22 -22 20 -23
-17 -17 -46 7 -83 -26 -108 -97 -15 -41 -18 -46 -14 -20 8 51 47 123 76 137
32 17 44 16 63 -3z m-750 -114 c32 -50 57 -93 54 -95 -2 -3 -41 35 -86 84 -82
89 -84 95 -37 100 6 0 37 -40 69 -89z m534 83 c22 -5 18 -12 -59 -89 -46 -46
-87 -84 -92 -84 -4 0 20 41 53 90 33 50 64 90 68 90 4 0 18 -3 30 -7z m-775
-34 c15 -11 32 -39 39 -62 6 -23 15 -47 19 -52 4 -6 5 -30 2 -54 -4 -29 -9
-38 -14 -29 -5 7 -6 25 -3 40 12 58 -36 158 -77 158 -10 0 -19 5 -19 10 0 16
26 11 53 -11z m952 6 c-41 -29 -56 -51 -71 -103 -11 -37 -13 -57 -6 -64 6 -6
8 -17 5 -25 -5 -12 -7 -12 -14 -1 -13 19 -11 43 7 106 17 59 52 102 81 102 16
-1 16 -2 -2 -15z m-124 -40 l8 30 -2 -30 c-2 -24 -13 -37 -62 -71 -118 -83
-123 -81 -40 10 77 84 80 86 84 59 l4 -28 8 30z m-606 -171 c31 -22 1 -16 -70
12 -55 22 -65 30 -65 50 0 25 0 25 58 -12 31 -20 66 -43 77 -50z m155 -101 c8
-8 -25 -23 -51 -23 -36 0 -44 12 -17 27 20 11 54 9 68 -4z m231 6 c11 -5 17
-14 14 -20 -8 -13 -42 -11 -68 3 l-22 12 25 7 c14 4 26 7 28 8 2 1 12 -4 23
-10z m-363 -19 c32 -1 -19 -30 -51 -30 -30 0 -30 0 -12 20 10 12 25 18 33 15
7 -3 21 -5 30 -5z m491 -3 c22 -28 -29 -38 -62 -12 -18 13 -17 14 5 18 41 8
45 7 57 -6z m-358 -27 c18 0 9 -17 -15 -28 -14 -6 -36 -8 -53 -3 l-28 8 30 16
c17 9 36 14 43 12 8 -3 18 -5 23 -5z m99 -22 c0 -5 -7 -8 -15 -8 -15 0 -20 21
-8 33 7 7 23 -11 23 -25z m125 20 c27 -12 33 -28 11 -28 -8 0 -20 -2 -28 -5
-7 -2 -22 2 -33 11 -17 13 -18 16 -5 24 19 12 24 12 55 -2z m250 -8 c18 -19
17 -20 -6 -20 -23 1 -59 21 -59 34 0 14 48 4 65 -14z m-735 -10 l-25 -20 28 0
c31 0 33 -6 10 -32 -10 -11 -30 -18 -51 -18 l-35 0 21 23 c26 28 28 37 6 37
-14 0 -14 3 -4 15 7 8 27 15 44 15 l31 0 -25 -20z m135 1 c18 -7 18 -9 -7 -25
-17 -11 -35 -15 -48 -11 -20 6 -21 8 -4 26 18 20 28 22 59 10z m479 -10 c16
-18 16 -19 -8 -23 -29 -6 -87 26 -64 35 27 11 55 6 72 -12z m-697 -23 c-3 -7
-5 -2 -5 12 0 14 2 19 5 13 2 -7 2 -19 0 -25z m819 -7 l24 -19 -32 -6 c-26 -5
-37 -2 -57 19 l-26 25 34 0 c18 0 44 -8 57 -19z m42 -80 c-4 -70 -43 -170 -60
-153 -5 5 2 28 18 57 20 36 28 67 32 124 3 42 8 67 10 57 2 -11 2 -49 0 -85z
m-819 -120 c13 -18 17 -32 11 -41 -14 -23 -63 94 -67 160 l-3 55 20 -73 c11
-40 28 -86 39 -101z m874 100 c-30 -25 -29 -33 1 -20 19 9 29 8 47 -5 l23 -16
-32 0 c-18 0 -46 -7 -63 -15 l-30 -16 7 28 c6 29 38 63 58 63 6 -1 1 -9 -11
-19z m-783 -120 c-33 -62 4 -120 112 -176 69 -35 168 -101 168 -112 0 -2 -12
-19 -26 -38 l-25 -34 -42 18 c-120 51 -304 61 -411 23 l-58 -22 14 23 c9 12
35 35 60 50 50 31 102 37 197 22 43 -7 53 -6 49 5 -2 8 -18 18 -35 22 -44 11
-66 51 -67 121 -2 68 21 117 54 117 17 0 19 -3 10 -19z m-120 -20 c1 10 5 8
15 -4 14 -19 10 -47 -6 -47 -5 0 -16 15 -25 33 -16 29 -16 31 -1 18 14 -11 17
-11 17 0z m935 -101 c-3 -5 -18 -9 -33 -9 l-27 1 30 8 c17 4 31 8 33 9 2 0 0
-3 -3 -9z m-1005 -10 c0 -5 -6 -10 -14 -10 -8 0 -18 5 -21 10 -3 6 3 10 14 10
12 0 21 -4 21 -10z m913 -25 c2 -10 -52 -40 -59 -33 -2 3 6 14 17 27 21 22 39
25 42 6z m-828 -3 c6 -4 16 -15 24 -25 14 -18 13 -18 -19 -5 -18 8 -35 19 -38
26 -4 13 17 16 33 4z m922 -46 c17 5 17 5 1 -6 -13 -8 -23 -8 -38 0 -11 6 -20
13 -20 16 0 2 9 0 19 -6 11 -5 28 -7 38 -4z m-94 -3 c-7 -2 -19 -2 -25 0 -7 3
-2 5 12 5 14 0 19 -2 13 -5z m-840 -10 c-7 -2 -21 -2 -30 0 -10 3 -4 5 12 5
17 0 24 -2 18 -5z m-93 -27 c0 -2 -8 -10 -17 -17 -16 -13 -17 -12 -4 4 13 16
21 21 21 13z m1440 -135 c15 -29 13 -38 -12 -46 l-23 -8 23 -4 c26 -5 31 -47
6 -57 -68 -26 -122 50 -78 112 20 28 69 30 84 3z m-1781 -25 c18 -38 5 -76
-32 -94 -46 -22 -94 10 -66 44 15 19 27 18 32 -3 4 -17 5 -17 6 0 0 10 -7 21
-16 24 -26 9 -33 24 -22 46 8 14 19 17 47 15 29 -2 40 -9 51 -32z m1705 -101
c11 -8 28 -15 38 -15 21 0 23 -11 6 -28 -15 -15 -54 -16 -63 -2 -10 16 -25 12
-19 -5 4 -9 18 -22 33 -30 l26 -14 -31 -1 c-18 0 -38 8 -48 18 -15 18 -15 20
4 37 11 10 20 26 20 37 0 22 8 22 34 3z m-91 -52 c-7 -2 -21 -2 -30 0 -10 3
-4 5 12 5 17 0 24 -2 18 -5z m-198 -272 c0 -8 -19 -19 -47 -26 -26 -6 -54 -18
-63 -25 -13 -11 -14 -10 -7 11 16 43 117 78 117 40z m-1047 -26 c27 -32 29
-55 3 -31 -11 10 -38 20 -60 23 -33 4 -41 10 -41 26 0 17 5 19 38 14 22 -4 46
-17 60 -32z"/>
<path d="M8247 2073 c-15 -37 -25 -68 -23 -70 2 -2 16 26 30 63 15 36 25 68
23 70 -2 2 -16 -26 -30 -63z"/>
<path d="M7775 1780 c55 -26 58 -29 30 -31 -26 -1 -27 -2 -6 -6 13 -3 28 0 34
6 7 7 -6 18 -47 36 -77 34 -86 30 -11 -5z"/>
<path d="M8310 1758 c0 -12 7 -18 23 -17 15 0 17 2 7 6 -8 3 -18 11 -22 17 -5
7 -8 4 -8 -6z"/>
<path d="M7738 1753 c6 -2 18 -2 25 0 6 3 1 5 -13 5 -14 0 -19 -2 -12 -5z"/>
<path d="M7953 2353 c9 -2 25 -2 35 0 9 3 1 5 -18 5 -19 0 -27 -2 -17 -5z"/>
<path d="M7203 2338 c-13 -6 -23 -17 -23 -25 0 -8 -4 -11 -10 -8 -13 8 -13 -1
0 -26 13 -24 30 -25 30 -1 0 10 9 28 20 40 31 33 25 40 -17 20z"/>
<path d="M7265 2340 c4 -6 11 -8 16 -5 14 9 11 15 -7 15 -8 0 -12 -5 -9 -10z"/>
<path d="M8048 2343 c18 -2 45 -2 60 0 15 2 0 4 -33 4 -33 0 -45 -2 -27 -4z"/>
<path d="M8679 2203 c-13 -16 -12 -17 4 -4 16 13 21 21 13 21 -2 0 -10 -8 -17
-17z"/>
<path d="M7410 2094 c0 -17 14 -18 28 -1 8 10 6 13 -9 14 -10 1 -19 -5 -19
-13z"/>
<path d="M7401 2024 c-7 -26 -10 -49 -7 -51 3 -3 10 15 16 38 7 24 14 47 17
52 2 4 0 7 -5 7 -5 0 -15 -21 -21 -46z"/>
<path d="M8720 2037 c0 -10 5 -17 10 -17 6 0 10 -6 10 -14 0 -8 7 -17 16 -20
8 -3 13 -10 9 -15 -9 -15 37 -43 50 -30 7 7 5 13 -6 19 -9 6 -20 21 -23 35 -4
14 -12 25 -18 25 -6 0 -20 7 -30 17 -17 15 -18 15 -18 0z"/>
<path d="M7335 2010 c-16 -17 -16 -20 -3 -15 9 4 19 13 22 21 7 19 2 18 -19
-6z"/>
<path d="M8546 1947 c-30 -30 -33 -59 -9 -78 15 -13 15 -12 5 8 -15 27 -6 53
18 53 23 0 36 18 22 32 -7 7 -18 2 -36 -15z"/>
<path d="M7560 1946 c0 -8 10 -16 23 -18 18 -2 22 -9 21 -35 -1 -18 2 -30 7
-27 16 9 10 60 -9 77 -23 21 -42 22 -42 3z"/>
<path d="M7122 1936 c4 -23 112 -110 130 -104 8 3 -2 14 -25 29 -20 13 -40 32
-43 42 -3 10 -11 16 -17 14 -6 -2 -20 6 -30 17 -16 19 -18 20 -15 2z"/>
<path d="M7323 1883 c-18 -35 -28 -63 -23 -63 12 0 62 98 58 114 -2 7 -18 -16
-35 -51z"/>
<path d="M11197 1900 c-22 -17 -25 -26 -20 -51 3 -18 -2 -55 -12 -89 -17 -57
-19 -58 -59 -64 -58 -9 -115 -44 -151 -93 l-30 -42 -72 0 c-66 -1 -73 1 -92
27 l-21 27 -21 -27 c-20 -28 -23 -28 -129 -28 -106 0 -109 0 -129 28 l-21 27
-21 -27 -21 -28 -168 0 -167 0 -7 31 c-3 17 -6 64 -6 103 0 80 -9 96 -52 96
-38 0 -46 -25 -19 -54 33 -35 27 -53 -21 -61 -120 -21 -118 -175 3 -175 41 0
42 0 24 -20 -15 -17 -16 -20 -3 -20 8 0 27 9 41 20 23 18 40 20 201 20 155 0
176 2 185 17 9 17 10 17 28 0 16 -14 40 -17 141 -17 104 0 122 2 131 17 9 17
10 17 28 0 15 -13 37 -17 88 -17 53 0 71 -4 81 -17 12 -17 14 -17 36 3 21 19
34 20 191 19 l167 -2 7 25 c13 53 -48 144 -110 165 -15 5 18 106 51 155 13 19
22 42 20 51 -5 24 -41 25 -71 1z m-87 -270 c0 -5 -17 -21 -37 -35 -25 -17 -32
-25 -20 -25 24 0 68 23 90 48 11 11 26 18 37 15 23 -6 66 -51 57 -60 -13 -12
-131 -23 -190 -16 -57 6 -57 6 -40 26 36 40 103 71 103 47z m-1102 -32 c-3
-30 -6 -33 -38 -33 -26 0 -36 5 -38 19 -5 23 23 46 56 46 20 0 23 -4 20 -32z"/>
<path d="M11962 1887 c-24 -25 -28 -47 -11 -64 13 -13 33 -205 25 -247 -3 -17
-15 -48 -26 -69 -19 -35 -19 -37 -3 -28 25 13 47 39 68 80 15 30 16 44 5 130
-6 53 -10 123 -8 156 3 68 -13 82 -50 42z"/>
<path d="M13932 1887 c-24 -25 -28 -47 -11 -64 13 -13 33 -205 25 -247 -3 -17
-15 -48 -26 -69 -19 -35 -19 -37 -3 -28 25 13 47 39 68 80 15 30 16 44 5 130
-6 53 -10 123 -8 156 3 68 -13 82 -50 42z"/>
<path d="M14912 1887 c-24 -25 -28 -47 -11 -64 13 -13 33 -205 25 -247 -3 -17
-15 -48 -26 -69 -19 -35 -19 -37 -3 -28 25 13 47 39 68 80 15 30 16 44 5 130
-6 53 -10 123 -8 156 3 68 -13 82 -50 42z"/>
<path d="M11812 1888 c-18 -18 -14 -57 10 -97 19 -30 23 -54 27 -140 3 -95 2
-103 -14 -98 -9 4 -75 7 -145 7 l-129 0 -7 35 c-13 72 -71 108 -106 68 -9 -10
-22 -35 -29 -56 -17 -49 1 -87 49 -99 39 -10 39 -19 7 -74 -66 -113 -209 -111
-246 5 -17 54 -33 64 -25 16 18 -100 75 -151 156 -139 25 3 57 12 71 19 34 18
83 75 109 125 l20 40 129 0 c101 0 131 -3 141 -15 9 -10 17 -12 30 -5 30 16
43 74 36 159 -20 260 -20 261 -55 261 -9 0 -22 -5 -29 -12z m-304 -311 c2 -11
-3 -17 -16 -17 -20 0 -36 23 -24 34 11 12 37 1 40 -17z"/>
<path d="M13782 1888 c-18 -18 -14 -57 10 -97 19 -29 23 -54 26 -136 l4 -100
-93 3 c-88 3 -96 5 -117 30 l-23 27 -20 -27 c-20 -27 -25 -28 -104 -28 -61 0
-86 4 -95 15 -17 20 -59 19 -67 -1 -3 -9 -1 -31 6 -50 11 -29 9 -39 -13 -82
-30 -59 -72 -96 -145 -130 -70 -32 -155 -28 -230 13 -67 37 -78 50 -57 70 9 9
16 20 16 24 0 14 -29 33 -40 26 -5 -3 -15 4 -20 17 -8 19 -9 17 -6 -17 3 -40
37 -106 73 -137 72 -65 208 -81 305 -36 67 31 136 97 161 153 32 73 28 70 113
73 59 2 82 7 91 19 12 15 14 15 31 0 14 -13 39 -17 109 -17 68 0 94 -4 103
-15 9 -10 17 -12 30 -5 30 16 43 74 36 159 -20 260 -20 261 -55 261 -9 0 -22
-5 -29 -12z"/>
<path d="M9922 1864 c-6 -11 -11 -13 -16 -5 -11 17 -53 13 -60 -5 -7 -19 10
-44 30 -44 7 0 19 6 27 14 10 10 17 12 25 4 14 -14 62 -2 62 15 0 34 -52 50
-68 21z"/>
<path d="M12352 1864 c-6 -11 -11 -13 -16 -5 -11 17 -53 13 -60 -5 -7 -19 10
-44 30 -44 7 0 19 6 27 14 10 10 17 12 25 4 14 -14 62 -2 62 15 0 34 -52 50
-68 21z"/>
<path d="M4712 1811 l-92 -37 46 -44 45 -45 -47 -42 c-26 -23 -46 -44 -43 -46
3 -3 113 -50 197 -84 8 -3 12 4 12 20 0 17 -7 28 -21 32 -11 4 -41 16 -66 27
l-45 20 38 39 38 39 -34 35 -33 35 39 16 c21 9 49 20 62 25 23 9 32 50 10 48
-7 0 -55 -17 -106 -38z"/>
<path d="M14365 1836 c-14 -10 -15 -16 -6 -34 14 -26 24 -27 45 -6 21 20 20
31 -3 43 -13 7 -23 6 -36 -3z"/>
<path d="M650 1770 l0 -70 -40 0 c-33 0 -40 -3 -40 -20 0 -17 7 -20 40 -20
l40 0 0 -75 c0 -68 2 -75 20 -75 17 0 19 8 22 73 l3 72 38 3 c29 3 37 7 37 23
0 16 -7 19 -40 19 l-40 0 0 70 c0 63 -2 70 -20 70 -18 0 -20 -7 -20 -70z"/>
<path d="M1060 1675 l0 -166 118 3 c113 3 117 4 120 26 3 22 1 22 -98 22
l-101 0 3 118 3 117 98 3 c89 2 97 4 97 22 0 19 -7 20 -120 20 l-120 0 0 -165z"/>
<path d="M1592 1678 l3 -163 130 0 130 0 3 163 2 162 -25 0 -25 0 0 -140 0
-140 -85 0 -85 0 0 140 0 140 -25 0 -25 0 2 -162z"/>
<path d="M2219 1816 c-45 -31 -69 -80 -69 -143 0 -142 165 -210 266 -109 55
55 64 144 19 212 -43 66 -149 85 -216 40z m163 -54 c100 -100 -34 -267 -141
-176 -43 36 -58 89 -38 137 33 77 122 97 179 39z"/>
<path d="M2270 1700 c-15 -28 4 -60 35 -60 31 0 50 32 35 60 -6 12 -21 20 -35
20 -14 0 -29 -8 -35 -20z"/>
<path d="M2620 1770 l0 -70 -35 0 c-28 0 -35 -4 -35 -20 0 -16 7 -20 35 -20
l35 0 0 -76 c0 -72 1 -75 23 -72 20 3 22 9 25 76 l3 72 34 0 c28 0 35 4 35 20
0 16 -7 20 -35 20 l-35 0 0 70 c0 68 -1 70 -25 70 -24 0 -25 -2 -25 -70z"/>
<path d="M3022 1678 c3 -155 4 -163 23 -163 19 0 20 8 23 163 l2 162 -25 0
-25 0 2 -162z"/>
<path d="M3370 1820 c-42 -42 -8 -120 54 -120 31 0 76 40 76 68 0 11 -9 31
-21 46 -26 33 -79 36 -109 6z m88 -41 c4 -31 -20 -53 -47 -44 -45 14 -30 79
17 73 21 -2 28 -9 30 -29z"/>
<path d="M3665 1830 c-52 -21 -95 -93 -95 -156 0 -139 166 -209 266 -113 105
102 36 280 -106 278 -25 0 -54 -4 -65 -9z m109 -45 c62 -30 84 -110 47 -171
-38 -63 -128 -70 -175 -13 -48 56 -27 156 37 184 41 18 52 18 91 0z"/>
<path d="M3694 1706 c-3 -8 -4 -25 -2 -38 2 -18 9 -23 32 -23 36 0 56 27 40
53 -14 22 -62 28 -70 8z"/>
<path d="M3991 1803 c12 -21 36 -57 51 -80 l29 -43 -51 -78 c-27 -44 -50 -82
-50 -85 0 -4 9 -7 20 -7 15 0 33 20 62 66 l41 65 41 -65 c31 -51 46 -66 64
-66 16 0 21 4 16 13 -4 6 -27 45 -52 84 l-44 73 51 80 51 80 -126 0 -126 0 23
-37z m144 -20 c-44 -69 -40 -67 -69 -23 -14 22 -26 42 -26 45 0 3 25 5 56 5
l56 0 -17 -27z"/>
<path d="M4292 1678 l3 -163 118 -3 117 -3 0 26 c0 25 0 25 -95 25 l-95 0 0
120 0 120 95 0 c88 0 95 1 95 20 0 19 -7 20 -120 20 l-120 0 2 -162z"/>
<path d="M5320 1675 c0 -158 1 -165 20 -165 19 0 20 7 20 165 0 158 -1 165
-20 165 -19 0 -20 -7 -20 -165z"/>
<path d="M5650 1675 l0 -166 118 3 c113 3 117 4 120 26 3 22 1 22 -97 22
l-101 0 0 120 0 120 100 0 c93 0 100 1 100 20 0 19 -7 20 -120 20 l-120 0 0
-165z"/>
<path d="M5990 1813 c-54 -69 48 -154 108 -90 45 48 14 117 -52 117 -26 0 -40
-7 -56 -27z m90 -18 c27 -32 -23 -82 -55 -55 -15 13 -20 51 -8 63 12 12 50 7
63 -8z"/>
<path d="M6269 1817 c-50 -33 -83 -105 -74 -163 8 -59 61 -119 116 -134 108
-29 211 68 196 183 -15 111 -147 175 -238 114z m131 -32 c101 -52 62 -225 -50
-225 -34 0 -78 28 -95 60 -32 61 -9 136 49 164 39 20 60 20 96 1z"/>
<path d="M14277 1828 c-21 -11 -22 -32 -2 -48 12 -10 18 -10 30 0 33 27 8 69
-28 48z"/>
<path d="M15044 1805 c-9 -23 3 -45 25 -45 20 0 37 32 26 50 -9 15 -45 12 -51
-5z"/>
<path d="M14434 1785 c-4 -17 -1 -32 10 -44 27 -30 20 -48 -24 -55 -56 -9
-100 -51 -107 -101 -9 -73 36 -103 126 -81 27 7 33 5 28 -5 -19 -49 -17 -52
16 -17 45 46 54 100 37 217 -16 113 -15 111 -49 111 -24 0 -32 -5 -37 -25z
m44 -177 c2 -28 -2 -40 -20 -52 -50 -35 -103 -8 -77 40 15 28 56 55 79 51 9
-1 16 -16 18 -39z"/>
<path d="M12393 1774 c-3 -8 4 -25 16 -38 33 -35 27 -53 -21 -61 -120 -21
-118 -175 3 -175 41 0 42 0 24 -20 -15 -17 -16 -20 -3 -20 8 0 27 9 41 20 23
18 40 20 171 20 127 0 146 2 155 17 9 16 11 16 28 1 15 -13 46 -17 172 -19
145 -3 155 -2 162 17 14 34 9 78 -11 112 -22 36 -39 40 -64 13 -19 -21 -12
-51 14 -51 14 0 30 -18 30 -33 0 -1 -57 -1 -127 1 -125 3 -129 4 -151 30 l-23
27 -20 -27 -21 -28 -138 0 -137 0 -7 31 c-3 17 -6 64 -6 103 0 43 -5 77 -12
84 -17 17 -67 15 -75 -4z m45 -176 c-3 -30 -6 -33 -38 -33 -26 0 -36 5 -38 19
-5 23 23 46 56 46 20 0 23 -4 20 -32z"/>
<path d="M9193 1763 c-19 -7 -16 -23 5 -23 16 -1 16 -1 0 -11 -10 -5 -18 -15
-18 -21 0 -7 -10 -22 -22 -35 -12 -13 -19 -26 -15 -29 3 -3 14 4 24 16 10 13
28 33 41 46 12 13 22 27 22 32 0 14 -24 30 -37 25z"/>
<path d="M13514 1756 c-10 -26 4 -48 28 -44 17 2 23 10 23 28 0 18 -6 26 -23
28 -13 2 -25 -3 -28 -12z"/>
<path d="M13600 1755 c-11 -13 -11 -19 3 -32 21 -21 49 -9 45 19 -4 28 -30 35
-48 13z"/>
<path d="M10677 1745 c-18 -18 -13 -40 11 -50 23 -9 49 21 36 42 -15 24 -29
26 -47 8z"/>
<path d="M7500 1719 c0 -5 -8 -9 -17 -7 -21 3 -43 -9 -43 -24 0 -7 5 -6 15 2
23 19 92 2 131 -32 38 -34 45 -25 13 16 -32 40 -99 71 -99 45z"/>
<path d="M6929 1683 c0 -5 -3 -28 -5 -53 -4 -28 -2 -41 4 -35 13 14 22 95 11
95 -5 0 -9 -3 -10 -7z"/>
<path d="M14712 1678 c-22 -22 -14 -58 18 -76 34 -20 37 -35 13 -93 -15 -39
-17 -41 -31 -23 -13 18 -14 17 -8 -7 4 -20 -1 -32 -22 -52 -42 -40 -93 -57
-175 -57 -90 0 -146 26 -194 89 -36 47 -45 35 -13 -17 23 -37 97 -87 150 -102
82 -23 192 -4 255 44 l34 26 48 -30 c26 -17 63 -35 83 -40 78 -22 187 -5 247
38 l29 21 17 -28 c34 -59 122 -74 198 -35 34 17 83 74 109 124 11 22 27 40 35
40 10 0 15 10 15 30 0 20 -5 30 -15 30 -8 0 -17 14 -21 35 -13 72 -71 108
-106 68 -9 -10 -22 -35 -29 -56 -17 -49 1 -87 49 -99 17 -5 32 -14 32 -20 0
-25 -52 -98 -86 -118 -45 -28 -113 -24 -150 11 -30 28 -30 38 1 99 42 83 31
170 -26 201 -51 27 -69 -51 -19 -79 16 -9 30 -25 30 -35 0 -29 -29 -89 -40
-82 -5 3 -10 -3 -10 -13 0 -27 -61 -78 -108 -93 -22 -6 -73 -10 -114 -8 -61 4
-82 9 -116 32 l-42 27 25 50 c36 72 35 142 -4 181 -33 32 -41 35 -59 17z m726
-101 c2 -11 -3 -17 -16 -17 -20 0 -36 23 -24 34 11 12 37 1 40 -17z"/>
<path d="M876 1649 c-35 -28 -36 -80 -1 -114 30 -31 56 -32 91 -2 37 33 37 81
0 114 -33 28 -56 29 -90 2z m78 -41 c8 -13 8 -23 0 -35 -16 -26 -51 -28 -64
-4 -25 47 36 83 64 39z"/>
<path d="M1423 1658 c-54 -26 -50 -114 6 -138 77 -31 136 66 76 125 -26 27
-47 30 -82 13z m65 -65 c2 -25 -1 -33 -18 -38 -39 -12 -67 34 -38 63 23 23 53
10 56 -25z"/>
<path d="M1973 1658 c-52 -25 -52 -99 0 -133 73 -47 145 58 82 120 -26 27 -47
30 -82 13z m67 -48 c22 -40 -26 -80 -58 -48 -25 25 -6 68 30 68 9 0 22 -9 28
-20z"/>
<path d="M5134 1647 c-38 -33 -37 -81 1 -114 71 -62 158 45 90 112 -30 31 -56
32 -91 2z m76 -37 c22 -40 -26 -80 -58 -48 -25 25 -6 68 30 68 9 0 22 -9 28
-20z"/>
<path d="M5466 1649 c-20 -16 -26 -29 -26 -59 0 -30 6 -43 26 -59 34 -27 57
-26 90 2 20 17 27 33 27 57 0 24 -7 40 -27 57 -33 28 -56 29 -90 2z m78 -41
c8 -13 8 -23 0 -35 -16 -26 -51 -28 -64 -4 -25 47 36 83 64 39z"/>
<path d="M3376 1639 c-62 -49 -6 -147 69 -119 13 5 31 21 41 35 14 21 14 30 5
54 -12 27 -47 51 -75 51 -7 0 -25 -9 -40 -21z m74 -23 c19 -23 8 -61 -18 -64
-44 -7 -67 32 -36 62 19 20 38 20 54 2z"/>
<path d="M5995 1635 c-28 -27 -30 -42 -14 -79 32 -69 139 -43 139 34 0 29 -44
70 -75 70 -14 0 -37 -11 -50 -25z m79 -21 c19 -19 20 -25 3 -48 -19 -26 -61
-18 -65 12 -7 44 32 67 62 36z"/>
<path d="M9088 1634 c-5 -4 -8 -18 -8 -31 0 -14 -7 -31 -15 -40 -8 -8 -13 -18
-10 -23 3 -4 -2 -13 -10 -20 -8 -7 -15 -18 -15 -25 0 -17 -29 -24 -57 -13 -24
8 -33 -6 -10 -16 6 -3 -12 -5 -41 -3 -64 3 -70 -16 -14 -41 42 -19 72 -44 72
-61 0 -6 7 -11 15 -11 9 0 12 -6 8 -16 -4 -11 -2 -15 7 -12 21 7 23 25 6 40
-9 7 -32 28 -51 46 l-34 32 40 -2 c32 -2 39 -6 35 -20 -6 -26 9 -22 28 7 18
28 21 39 6 30 -21 -13 -8 16 36 81 46 67 72 119 41 81 -15 -18 -16 -18 -19 3
-2 12 -6 18 -10 14z"/>
<path d="M8955 1610 c-3 -5 1 -10 9 -10 9 0 16 5 16 10 0 6 -4 10 -9 10 -6 0
-13 -4 -16 -10z"/>
<path d="M9223 1606 c-18 -9 -21 -16 -16 -52 3 -24 0 -52 -8 -65 l-12 -24 22
20 c18 16 22 27 17 54 -4 25 -1 40 11 53 20 22 15 27 -14 14z"/>
<path d="M8878 1579 c-10 -5 -18 -14 -18 -19 0 -11 26 -3 55 17 19 13 19 13 0
13 -11 0 -28 -5 -37 -11z"/>
<path d="M7105 1563 c11 -11 23 -19 28 -16 4 2 7 -1 7 -6 0 -6 5 -11 10 -11 6
0 10 9 10 20 0 11 -6 20 -12 20 -7 0 -24 3 -38 7 l-25 6 20 -20z"/>
<path d="M6960 1561 c0 -4 11 -19 24 -32 l24 -25 -36 2 c-53 3 -54 3 -48 13 3
5 -1 12 -10 15 -22 8 -24 8 -24 -8 0 -8 -13 -36 -30 -63 -59 -97 -63 -202 -10
-288 19 -31 160 -164 160 -152 0 3 -35 41 -78 84 -85 85 -102 120 -102 210 0
36 9 67 31 112 28 56 33 61 48 48 20 -18 76 -37 108 -37 31 0 39 -24 19 -55
-13 -20 -25 -25 -64 -27 -44 -1 -45 -2 -9 -5 32 -4 36 -7 26 -19 -6 -8 -18
-14 -25 -14 -29 0 -34 -46 -15 -121 19 -75 38 -99 77 -99 12 0 38 -7 57 -15
45 -19 47 -19 47 1 0 11 -5 14 -16 10 -21 -8 -45 11 -37 30 3 7 -9 35 -26 61
-17 25 -31 50 -31 54 0 4 -13 12 -30 18 -36 12 -39 37 -6 52 13 6 30 22 37 35
7 13 18 24 25 24 7 0 18 9 24 20 6 11 16 18 21 14 6 -3 16 2 24 12 7 11 19 19
27 19 12 0 13 4 10 39 -2 15 -28 25 -85 32 -25 3 -49 15 -68 35 -29 30 -39 35
-39 20z m65 -392 c24 -45 25 -50 7 -40 -10 6 -22 8 -26 4 -7 -8 -36 60 -36 87
0 11 -4 20 -10 20 -5 0 -10 5 -10 12 0 20 46 -31 75 -83z m33 -24 c-3 -3 -9 2
-12 12 -6 14 -5 15 5 6 7 -7 10 -15 7 -18z"/>
<path d="M7424 1556 c-8 -22 2 -34 37 -41 39 -9 56 6 32 27 -29 25 -62 32 -69
14z"/>
<path d="M8668 1559 c-26 -15 -22 -39 5 -39 30 0 62 24 53 38 -9 15 -35 15
-58 1z"/>
<path d="M9087 1522 c-32 -33 -35 -47 -7 -32 20 11 45 48 38 56 -3 2 -17 -9
-31 -24z"/>
<path d="M9303 1526 c-12 -11 -36 -32 -53 -45 -47 -36 -29 -36 29 0 31 20 51
39 51 50 0 22 1 23 -27 -5z"/>
<path d="M7235 1498 c-6 -14 -11 -15 -27 -7 -28 15 -32 6 -8 -16 19 -17 22
-17 36 -3 9 9 14 22 11 30 -3 10 -6 9 -12 -4z"/>
<path d="M8760 1499 c0 -9 11 -25 24 -38 l23 -22 17 26 c13 20 22 24 41 19 20
-5 24 -3 19 10 -8 22 -40 20 -63 -3 -18 -18 -19 -18 -40 2 -17 17 -21 18 -21
6z"/>
<path d="M7214 1444 c-13 -11 -15 -17 -7 -20 10 -4 9 -9 -2 -20 -8 -9 -19 -13
-23 -10 -12 7 -119 -80 -127 -103 -3 -12 -13 -21 -21 -21 -21 0 -17 -21 6 -27
11 -3 20 -9 20 -14 0 -5 5 -9 10 -9 7 0 7 8 -1 22 -10 19 -8 25 17 45 18 14
42 23 66 23 20 0 44 3 53 6 14 6 14 9 1 29 -13 19 -13 25 -2 34 10 9 15 7 20
-5 5 -12 10 -14 17 -7 6 6 6 19 0 36 -6 15 -8 34 -5 42 8 19 3 19 -22 -1z"/>
<path d="M9128 1432 c-48 -49 -52 -50 -66 -33 -11 14 -12 13 -6 -8 4 -18 3
-22 -7 -16 -9 6 -11 3 -6 -9 4 -10 7 -20 7 -22 0 -2 7 -4 16 -4 10 0 14 5 10
16 -3 8 -2 13 3 9 5 -3 12 1 14 7 4 8 6 7 6 -3 1 -9 7 -19 15 -22 18 -7 38 16
31 34 -3 8 8 21 26 32 18 10 29 20 26 24 -4 3 -13 0 -22 -7 -9 -7 -19 -9 -23
-5 -4 4 -1 10 6 12 13 5 17 23 5 22 -5 0 -20 -12 -35 -27z"/>
<path d="M10458 1439 c-22 -12 -23 -23 -3 -43 28 -27 69 10 44 40 -13 16 -18
17 -41 3z"/>
<path d="M10363 1424 c-3 -8 2 -23 11 -32 15 -15 17 -15 32 0 21 21 11 48 -16
48 -11 0 -23 -7 -27 -16z"/>
<path d="M12733 1424 c-3 -8 2 -23 11 -32 15 -15 17 -15 32 0 21 21 11 48 -16
48 -11 0 -23 -7 -27 -16z"/>
<path d="M13114 1425 c-8 -21 2 -45 19 -45 20 0 40 27 33 45 -7 19 -45 20 -52
0z"/>
<path d="M8810 1420 c0 -11 48 -56 79 -74 20 -12 -28 46 -56 68 -13 10 -23 12
-23 6z"/>
<path d="M8930 1281 c-7 -15 -7 -21 0 -21 12 0 25 28 17 36 -3 3 -10 -4 -17
-15z"/>
<path d="M9013 1290 c-13 -5 -23 -14 -23 -20 0 -12 35 3 45 20 7 12 7 12 -22
0z"/>
<path d="M8825 1230 c-3 -6 1 -7 9 -4 18 7 21 14 7 14 -6 0 -13 -4 -16 -10z"/>
<path d="M9177 1233 c-4 -6 -4 -18 -1 -27 3 -9 1 -23 -6 -31 -7 -8 -8 -15 -4
-15 17 0 30 35 24 60 -3 15 -9 20 -13 13z"/>
<path d="M8790 1209 c0 -13 4 -18 12 -13 7 4 8 3 4 -4 -4 -7 -15 -12 -24 -12
-20 0 -143 -58 -126 -59 6 -1 36 10 65 23 72 31 119 41 119 25 0 -7 3 -9 7 -6
3 4 12 2 20 -4 9 -9 13 -8 13 0 0 6 3 10 8 10 23 -4 42 2 36 12 -4 7 -10 7
-16 1 -11 -11 -71 8 -99 31 -18 16 -19 16 -19 -4z"/>
<path d="M9150 1226 c0 -2 -7 -20 -15 -40 -12 -29 -13 -36 -2 -36 8 0 14 6 14
13 0 6 4 24 8 40 4 15 4 27 1 27 -3 0 -6 -2 -6 -4z"/>
<path d="M7280 1190 c-20 -5 -14 -8 35 -18 33 -7 86 -23 118 -36 34 -14 53
-19 47 -11 -6 8 -42 23 -78 35 -37 12 -74 25 -82 29 -8 4 -26 5 -40 1z"/>
<path d="M7195 1157 c10 -8 15 -19 11 -26 -6 -9 -11 -9 -22 0 -8 6 -17 9 -21
5 -3 -3 -1 -6 6 -6 6 0 18 -15 26 -32 8 -19 14 -26 15 -15 0 21 43 23 118 3
28 -8 52 -11 52 -7 0 12 -72 31 -114 31 -22 0 -36 5 -36 13 0 8 -4 7 -11 -3
-9 -13 -10 -13 -6 0 2 9 14 14 26 13 19 -3 20 0 11 18 -9 15 -15 18 -25 9 -9
-8 -15 -8 -20 0 -3 5 -11 10 -18 10 -6 0 -3 -6 8 -13z"/>
<path d="M7107 1153 c-4 -3 -7 -11 -7 -17 0 -6 5 -5 12 2 6 6 9 14 7 17 -3 3
-9 2 -12 -2z"/>
<path d="M9196 1099 c-15 -22 -26 -43 -23 -45 2 -2 16 14 31 37 15 22 26 43
23 45 -2 2 -16 -14 -31 -37z"/>
<path d="M8810 1109 c-19 -6 -39 -15 -45 -21 -7 -8 -2 -9 15 -4 14 4 58 10 98
13 56 4 72 3 72 -8 0 -8 6 -6 16 7 8 10 13 14 10 7 -4 -6 -1 -15 5 -19 8 -4 7
-9 -2 -16 -12 -8 -11 -9 1 -6 8 3 25 -8 38 -24 27 -32 48 -38 33 -9 -6 10 -7
21 -3 25 3 4 -1 4 -11 0 -22 -8 -22 12 1 25 9 6 12 11 5 11 -6 0 -15 -4 -18
-10 -9 -15 -25 -12 -25 5 0 7 8 19 18 24 16 10 16 10 0 11 -10 0 -18 -5 -18
-11 0 -7 -4 -8 -12 -2 -18 13 -136 14 -178 2z"/>
<path d="M9065 1110 c-3 -5 1 -10 9 -10 9 0 16 5 16 10 0 6 -4 10 -9 10 -6 0
-13 -4 -16 -10z"/>
<path d="M7160 1100 c11 -7 11 -10 2 -10 -7 0 -11 -4 -8 -9 4 -5 0 -12 -6 -14
-7 -3 -1 -6 15 -6 20 -1 27 4 27 18 0 10 -7 22 -16 25 -24 9 -31 7 -14 -4z"/>
<path d="M8057 1052 c-25 -27 -55 -69 -68 -93 -25 -49 -36 -154 -23 -207 7
-24 9 -10 9 60 0 84 3 98 29 146 16 29 47 71 68 94 21 23 36 43 35 45 -2 2
-24 -19 -50 -45z"/>
<path d="M9108 1053 c-16 -2 -28 -9 -28 -14 0 -14 24 -11 46 6 10 8 17 14 14
13 -3 0 -17 -3 -32 -5z"/>
<path d="M9142 995 c-7 -14 -12 -31 -12 -38 1 -7 7 3 16 22 17 39 13 54 -4 16z"/>
<path d="M9116 909 c-6 -30 10 -116 24 -132 11 -13 47 1 54 20 4 9 2 21 -4 27
-7 7 -10 3 -10 -12 0 -15 -6 -22 -20 -22 -24 0 -26 13 -5 34 14 13 13 16 -4
26 -15 7 -20 20 -19 45 2 46 -8 54 -16 14z"/>
<path d="M13055 927 c-14 -11 -17 -22 -12 -45 4 -20 2 -32 -6 -35 -8 -3 -9 -8
-2 -15 7 -8 22 -5 53 8 45 20 57 43 20 39 -27 -4 -51 9 -43 22 4 5 15 9 26 9
23 0 25 15 3 24 -20 8 -17 8 -39 -7z"/>
<path d="M13384 866 c-31 -22 -36 -53 -12 -70 25 -18 33 -73 23 -173 l-8 -78
-13 62 c-25 117 -83 192 -164 214 -39 10 -51 10 -83 -6 -37 -17 -69 -58 -82
-105 -5 -20 -2 -17 19 12 15 21 35 42 46 48 30 16 92 12 127 -10 68 -41 121
-154 111 -235 -3 -27 -8 -31 -58 -43 -97 -24 -177 3 -229 78 l-24 35 7 -35 c4
-21 21 -50 45 -73 33 -34 47 -40 109 -50 54 -9 72 -16 75 -29 12 -43 97 -9 97
39 0 11 7 26 15 33 26 21 45 108 51 234 6 109 5 123 -12 144 -17 21 -21 21
-40 8z"/>
<path d="M7049 858 c0 -2 -2 -12 -4 -23 -2 -11 -9 -21 -14 -23 -6 -2 -11 -16
-11 -30 0 -21 2 -24 10 -12 9 13 14 7 11 -12 0 -4 6 -5 13 -2 21 8 27 31 10
38 -9 4 -12 11 -7 18 12 20 14 48 3 48 -6 0 -10 -1 -11 -2z"/>
<path d="M14611 844 c-25 -18 -28 -60 -5 -93 17 -23 48 -215 40 -238 -4 -9
-26 -13 -65 -13 -53 0 -62 3 -80 28 l-21 27 -21 -27 -21 -28 -162 0 c-171 0
-186 4 -186 46 0 35 -37 74 -71 74 -27 0 -69 -29 -69 -48 0 -4 -13 -13 -30
-19 -43 -16 -54 -52 -44 -153 10 -114 10 -148 1 -192 -11 -54 9 -49 35 8 17
39 20 63 17 147 -4 86 -2 101 13 111 14 8 23 7 40 -4 29 -18 61 -21 278 -26
157 -4 176 -3 187 12 12 16 14 16 31 1 14 -13 37 -17 90 -17 40 0 72 -4 72 -9
0 -5 -5 -22 -10 -36 -14 -37 9 -29 35 13 l20 31 99 1 c78 0 103 4 118 17 17
15 19 15 36 0 27 -25 177 -24 191 0 9 17 10 17 28 0 15 -13 38 -17 105 -17 63
0 89 -4 98 -15 18 -22 46 -3 61 42 11 36 10 66 -10 287 -7 76 -25 101 -59 80
-26 -17 -26 -60 0 -102 19 -31 23 -54 26 -137 l4 -100 -88 3 c-82 3 -91 5
-112 30 l-23 27 -20 -27 c-19 -26 -26 -28 -89 -28 -38 0 -72 5 -75 10 -4 6 5
10 20 10 46 0 42 28 -11 75 -27 24 -53 44 -58 45 -4 0 -23 -12 -41 -27 -17
-16 -40 -32 -49 -38 -30 -17 -25 -48 9 -56 51 -10 6 -20 -76 -17 l-74 3 -6 70
c-23 269 -23 271 -43 278 -7 3 -23 -1 -35 -9z m319 -263 c0 -5 9 -11 21 -14
33 -9 12 -27 -31 -27 -43 0 -61 15 -30 25 11 3 20 11 20 16 0 5 5 9 10 9 6 0
10 -4 10 -9z m-893 -37 c8 -21 -13 -42 -28 -27 -13 13 -5 43 11 43 6 0 13 -7
17 -16z"/>
<path d="M11432 827 c-24 -25 -28 -47 -11 -64 13 -13 33 -205 25 -247 -3 -17
-15 -48 -26 -69 -19 -35 -19 -37 -3 -28 25 13 47 39 68 80 15 30 16 44 5 130
-6 53 -10 123 -8 156 3 68 -13 82 -50 42z"/>
<path d="M13502 827 c-24 -25 -28 -47 -11 -64 13 -13 33 -205 25 -247 -3 -17
-15 -48 -26 -69 -19 -35 -19 -37 -3 -28 25 13 47 39 68 80 15 30 16 44 5 130
-6 53 -10 123 -8 156 3 68 -13 82 -50 42z"/>
<path d="M15492 827 c-24 -25 -28 -47 -11 -64 13 -13 33 -205 25 -247 -3 -17
-15 -48 -26 -69 -19 -35 -19 -37 -3 -28 25 13 47 39 68 80 15 30 16 44 5 130
-6 53 -10 123 -8 156 3 68 -13 82 -50 42z"/>
<path d="M11282 828 c-18 -18 -14 -57 10 -97 19 -29 23 -54 26 -136 l4 -100
-93 3 c-62 3 -99 9 -110 18 -21 19 -58 18 -66 -2 -3 -9 -1 -31 6 -50 11 -29 9
-39 -13 -82 -30 -59 -72 -96 -145 -130 -72 -33 -156 -28 -233 15 -72 40 -100
95 -102 198 -1 58 -6 80 -22 102 -76 103 -210 97 -314 -13 -28 -30 -55 -54
-60 -54 -5 0 -17 11 -26 25 -20 31 -28 31 -42 0 l-12 -25 -159 0 -158 0 -7 31
c-3 17 -6 64 -6 103 0 80 -9 96 -52 96 -38 0 -46 -25 -19 -54 33 -35 27 -53
-21 -61 -120 -21 -118 -175 3 -175 41 0 42 0 24 -20 -15 -17 -16 -20 -3 -20 8
0 27 9 41 20 23 18 40 20 195 20 141 0 172 3 182 16 12 13 16 12 37 -10 26
-28 52 -33 71 -14 17 17 300 19 306 1 3 -7 11 -13 18 -13 7 0 21 -27 31 -60 9
-33 31 -75 47 -93 70 -81 215 -105 322 -55 67 31 136 97 161 153 32 72 29 70
107 73 56 2 76 -1 90 -13 17 -15 20 -15 39 4 27 27 35 77 27 164 -4 40 -9 106
-12 147 -4 41 -11 81 -16 88 -13 15 -40 16 -56 0z m-822 -270 c45 -31 47 -44
9 -52 -46 -9 -209 -7 -209 2 0 10 38 45 65 60 34 19 99 14 135 -10z m-742 -20
c-3 -30 -6 -33 -38 -33 -26 0 -36 5 -38 19 -5 23 23 46 56 46 20 0 23 -4 20
-32z"/>
<path d="M12682 828 c-18 -18 -14 -57 10 -97 19 -29 23 -54 26 -136 l4 -100
-158 3 c-88 1 -164 5 -171 7 -7 2 -21 22 -32 43 -11 22 -27 42 -35 45 -19 8
-94 -18 -118 -40 -17 -15 -17 -17 2 -48 76 -123 -99 -255 -337 -255 -72 0
-191 24 -218 44 -17 12 -17 15 7 47 14 19 33 49 42 67 9 17 23 32 31 32 10 0
15 10 15 30 0 20 -5 30 -15 30 -8 0 -17 14 -21 35 -13 72 -71 108 -106 68 -9
-10 -22 -35 -29 -56 -17 -49 1 -87 49 -99 17 -5 32 -14 32 -20 0 -16 -49 -98
-59 -98 -4 0 -26 17 -49 38 -50 46 -53 41 -11 -18 37 -51 28 -63 -44 -57 -56
5 -91 32 -108 86 -17 54 -33 64 -25 16 18 -100 75 -151 156 -139 25 3 53 10
62 15 13 7 31 3 66 -15 71 -36 156 -49 285 -44 100 4 120 8 178 35 81 38 132
89 159 160 19 51 19 57 5 86 -19 38 -19 37 10 37 17 0 29 -9 39 -29 25 -47 76
-61 230 -61 106 0 136 -3 146 -15 9 -10 17 -12 30 -5 30 16 43 74 36 159 -20
260 -20 261 -55 261 -9 0 -22 -5 -29 -12z m-1014 -311 c2 -11 -3 -17 -16 -17
-20 0 -36 23 -24 34 11 12 37 1 40 -17z"/>
<path d="M10637 812 c-21 -23 -22 -61 -2 -89 20 -29 57 -230 49 -268 -3 -16
-13 -38 -22 -47 -26 -30 10 -22 39 8 23 25 28 26 102 22 76 -5 79 -4 88 19 14
38 11 75 -11 111 -22 36 -39 40 -64 13 -19 -21 -12 -51 14 -51 14 0 30 -18 30
-34 0 -8 -126 8 -131 17 -15 22 -40 182 -37 235 4 80 -18 105 -55 64z"/>
<path d="M9632 804 c-6 -11 -11 -13 -16 -5 -11 17 -53 13 -60 -5 -7 -19 10
-44 30 -44 7 0 19 6 27 14 10 10 17 12 25 4 14 -14 62 -2 62 15 0 34 -52 50
-68 21z"/>
<path d="M10310 765 c-11 -13 -11 -19 4 -33 20 -20 51 -6 51 24 0 24 -37 30
-55 9z"/>
<path d="M557 753 c-8 -13 -137 -305 -137 -310 0 -2 10 -3 22 -1 17 2 33 28
77 130 31 70 58 128 61 128 3 0 30 -58 61 -128 44 -99 61 -128 78 -130 11 -2
21 0 20 5 0 4 -30 76 -67 158 -54 119 -72 151 -89 153 -12 2 -23 0 -26 -5z"/>
<path d="M1200 738 c-64 -33 -85 -67 -85 -138 0 -43 5 -66 21 -87 25 -35 98
-73 139 -73 41 0 114 38 139 73 31 42 29 131 -3 176 -27 37 -90 70 -136 71
-17 0 -51 -10 -75 -22z m149 -43 c62 -53 62 -137 0 -190 -63 -53 -162 -21
-189 60 -25 75 34 155 115 155 32 0 51 -7 74 -25z"/>
<path d="M1246 624 c-19 -19 -20 -25 -3 -49 20 -26 67 -13 67 18 0 43 -35 60
-64 31z"/>
<path d="M1590 738 c-64 -33 -85 -67 -85 -138 0 -43 5 -66 21 -87 25 -35 98
-73 139 -73 41 0 114 38 139 73 31 42 29 131 -3 176 -27 37 -90 70 -136 71
-17 0 -51 -10 -75 -22z m149 -43 c62 -53 62 -137 0 -190 -63 -53 -162 -21
-189 60 -25 75 34 155 115 155 32 0 51 -7 74 -25z"/>
<path d="M1636 624 c-19 -19 -20 -25 -3 -49 20 -26 67 -13 67 18 0 43 -35 60
-64 31z"/>
<path d="M1890 600 c0 -153 1 -160 20 -160 16 0 20 7 20 33 0 35 41 127 65
147 13 11 15 -1 15 -84 0 -89 1 -96 20 -96 19 0 20 7 20 160 0 152 -1 160 -20
160 -14 0 -21 -9 -25 -34 -4 -18 -21 -57 -38 -87 l-32 -54 -3 88 c-3 79 -5 87
-22 87 -19 0 -20 -8 -20 -160z"/>
<path d="M2110 600 l0 -160 120 0 c113 0 120 1 120 20 0 19 -7 20 -100 20
l-100 0 0 120 0 120 100 0 c93 0 100 1 100 20 0 19 -7 20 -120 20 l-120 0 0
-160z"/>
<path d="M2557 753 c-8 -13 -137 -305 -137 -310 0 -2 10 -3 22 -1 17 2 33 28
77 130 31 70 58 128 61 128 3 0 30 -58 61 -128 44 -99 61 -128 78 -130 11 -2
21 0 20 5 0 4 -30 76 -67 158 -54 119 -72 151 -89 153 -12 2 -23 0 -26 -5z"/>
<path d="M3110 600 l0 -160 120 0 c113 0 120 1 120 20 0 19 -7 20 -100 20
l-100 0 0 120 0 120 100 0 c93 0 100 1 100 20 0 19 -7 20 -120 20 l-120 0 0
-160z"/>
<path d="M3420 733 c0 -49 35 -92 85 -105 60 -16 60 -40 0 -56 -33 -9 -50 -20
-65 -45 -27 -43 -27 -87 0 -87 14 0 20 7 20 24 0 33 37 76 66 76 22 0 24 -4
24 -50 0 -43 3 -50 20 -50 17 0 20 7 20 50 0 42 3 50 18 50 27 0 62 -42 62
-73 0 -22 5 -27 25 -27 22 0 24 3 19 33 -9 48 -36 80 -82 97 -25 8 -42 21 -42
30 0 9 17 22 42 30 46 17 73 49 82 98 5 29 3 32 -19 32 -21 0 -25 -5 -25 -28
0 -31 -36 -72 -63 -72 -14 0 -17 10 -17 50 0 43 -3 50 -20 50 -17 0 -20 -7
-20 -50 0 -41 -3 -50 -18 -50 -31 0 -61 29 -68 65 -4 25 -11 35 -25 35 -14 0
-19 -7 -19 -27z"/>
<path d="M4386 750 c-16 -5 -40 -19 -53 -32 -79 -73 -70 -186 20 -252 38 -28
129 -28 175 -1 99 59 101 210 4 268 -37 21 -107 30 -146 17z m113 -44 c56 -29
79 -108 47 -164 -34 -62 -122 -81 -174 -37 -64 54 -67 131 -6 184 39 35 86 41
133 17z"/>
<path d="M4696 739 c-54 -43 -23 -109 52 -109 68 0 94 59 47 105 -30 30 -64
32 -99 4z m88 -31 c14 -23 -3 -52 -33 -56 -42 -6 -67 38 -39 66 17 17 58 11
72 -10z"/>
<path d="M5137 753 c-8 -13 -137 -305 -137 -310 0 -2 10 -3 22 -1 17 2 33 28
77 130 31 70 58 128 61 128 3 0 30 -58 61 -128 44 -99 61 -128 78 -130 11 -2
21 0 20 5 0 4 -30 76 -67 158 -54 119 -72 151 -89 153 -12 2 -23 0 -26 -5z"/>
<path d="M5580 690 l0 -70 -40 0 c-33 0 -40 -3 -40 -20 0 -17 7 -20 40 -20
l40 0 0 -70 c0 -63 2 -70 20 -70 18 0 20 7 20 70 l0 70 40 0 c33 0 40 3 40 20
0 17 -7 20 -40 20 l-40 0 0 70 c0 63 -2 70 -20 70 -18 0 -20 -7 -20 -70z"/>
<path d="M5786 739 c-54 -43 -23 -109 52 -109 68 0 94 59 47 105 -30 30 -64
32 -99 4z m88 -31 c14 -23 -3 -52 -33 -56 -42 -6 -67 38 -39 66 17 17 58 11
72 -10z"/>
<path d="M5950 605 c0 -148 1 -155 20 -155 19 0 20 7 20 155 0 148 -1 155 -20
155 -19 0 -20 -7 -20 -155z"/>
<path d="M6050 605 c0 -148 1 -155 20 -155 19 0 20 7 20 155 0 148 -1 155 -20
155 -19 0 -20 -7 -20 -155z"/>
<path d="M6176 739 c-54 -43 -23 -109 52 -109 68 0 94 59 47 105 -30 30 -64
32 -99 4z m88 -31 c14 -23 -3 -52 -33 -56 -42 -6 -67 38 -39 66 17 17 58 11
72 -10z"/>
<path d="M6350 605 c0 -148 1 -155 20 -155 19 0 20 7 20 155 0 148 -1 155 -20
155 -19 0 -20 -7 -20 -155z"/>
<path d="M6520 690 l0 -70 -40 0 c-33 0 -40 -3 -40 -20 0 -17 7 -20 40 -20
l40 0 0 -70 c0 -63 2 -70 20 -70 18 0 20 7 20 70 l0 70 40 0 c33 0 40 3 40 20
0 17 -7 20 -40 20 l-40 0 0 70 c0 63 -2 70 -20 70 -18 0 -20 -7 -20 -70z"/>
<path d="M3770 595 l0 -155 135 0 135 0 0 155 c0 148 -1 155 -20 155 -19 0
-20 -7 -20 -135 l0 -135 -95 0 -95 0 0 135 c0 128 -1 135 -20 135 -19 0 -20
-7 -20 -155z"/>
<path d="M8606 725 c4 -16 7 -45 7 -64 -2 -29 0 -32 12 -20 12 12 12 21 2 56
-7 23 -16 45 -21 50 -5 4 -5 -5 0 -22z"/>
<path d="M8487 728 c-18 -14 -8 -46 11 -34 8 5 14 46 7 46 -1 0 -9 -6 -18 -12z"/>
<path d="M8535 730 c-3 -5 1 -10 9 -10 8 0 18 5 21 10 3 6 -1 10 -9 10 -8 0
-18 -4 -21 -10z"/>
<path d="M7547 704 c-16 -9 -26 -21 -24 -29 4 -9 -1 -11 -14 -8 -10 3 -19 9
-19 14 0 13 -14 11 -36 -7 -12 -10 -14 -14 -4 -11 8 2 27 -2 42 -9 15 -8 62
-19 105 -25 121 -16 122 -16 116 -39 -6 -23 1 -24 46 -9 39 14 61 0 37 -24
-14 -13 -13 -15 7 -21 36 -9 43 -6 23 9 -26 20 -6 19 59 0 49 -15 75 -14 75 4
0 5 -6 9 -12 8 -32 -1 -49 4 -44 12 12 18 -20 32 -49 21 -23 -9 -30 -7 -40 7
-12 16 -18 16 -46 6 -39 -15 -44 -12 -29 16 9 18 7 22 -13 30 -14 5 -60 14
-103 20 -71 10 -109 21 -73 21 9 0 24 7 35 15 26 20 -1 19 -39 -1z m106 -61
c-7 -2 -21 -2 -30 0 -10 3 -4 5 12 5 17 0 24 -2 18 -5z m234 -69 c-3 -3 -12
-4 -19 -1 -8 3 -5 6 6 6 11 1 17 -2 13 -5z"/>
<path d="M7645 701 c-6 -5 -19 -11 -30 -14 -16 -4 -15 -5 6 -6 14 0 34 6 45
14 15 11 16 14 4 15 -9 0 -20 -4 -25 -9z"/>
<path d="M8410 700 c0 -5 7 -10 15 -10 8 0 15 5 15 10 0 6 -7 10 -15 10 -8 0
-15 -4 -15 -10z"/>
<path d="M15084 696 c-10 -26 4 -48 28 -44 17 2 23 10 23 28 0 18 -6 26 -23
28 -13 2 -25 -3 -28 -12z"/>
<path d="M15170 695 c-11 -13 -11 -19 3 -32 21 -21 49 -9 45 19 -4 28 -30 35
-48 13z"/>
<path d="M8450 690 c0 -5 5 -10 10 -10 6 0 10 5 10 10 0 6 -4 10 -10 10 -5 0
-10 -4 -10 -10z"/>
<path d="M8550 690 c0 -5 5 -10 10 -10 6 0 10 5 10 10 0 6 -4 10 -10 10 -5 0
-10 -4 -10 -10z"/>
<path d="M8583 668 c8 -31 -17 -46 -32 -20 -9 15 -10 14 -11 -5 0 -27 14 -36
40 -28 22 7 28 59 9 71 -8 5 -10 -1 -6 -18z"/>
<path d="M7776 673 c-11 -11 -6 -23 9 -23 8 0 15 4 15 9 0 13 -16 22 -24 14z"/>
<path d="M8342 659 c-6 -15 -17 -29 -24 -32 -7 -3 -8 -6 -2 -6 17 -1 47 36 41
51 -3 8 -9 3 -15 -13z"/>
<path d="M8500 668 c0 -20 -29 -28 -53 -14 -15 9 -23 6 -43 -19 -13 -16 -24
-26 -24 -22 0 5 -10 1 -22 -7 -12 -9 -39 -16 -60 -16 -32 0 -37 -3 -40 -27 -4
-36 -26 -41 -30 -6 -2 20 5 35 25 55 26 25 30 57 6 42 -5 -3 -7 -9 -4 -14 3
-4 -9 -20 -26 -34 -25 -21 -30 -32 -25 -51 5 -18 2 -25 -8 -25 -9 0 -16 17
-21 50 -4 28 -11 50 -17 50 -10 0 -3 -44 13 -87 7 -19 16 -23 53 -23 36 0 46
4 51 20 4 12 19 22 41 26 19 3 37 10 40 15 9 15 22 10 29 -11 6 -19 8 -19 31
-3 29 19 25 30 -5 13 -13 -6 -21 -7 -21 -1 0 12 89 55 108 52 17 -3 27 28 13
42 -8 8 -11 7 -11 -5z m-60 -32 c0 -2 -7 -7 -16 -10 -8 -3 -12 -2 -9 4 6 10
25 14 25 6z"/>
<path d="M7840 641 c0 -5 -12 -12 -27 -14 -28 -4 -28 -4 -2 -6 14 0 34 6 45
14 17 13 17 14 2 15 -10 0 -18 -4 -18 -9z"/>
<path d="M7900 620 c0 -5 7 -10 15 -10 8 0 15 5 15 10 0 6 -7 10 -15 10 -8 0
-15 -4 -15 -10z"/>
<path d="M8090 620 c-13 -9 -7 -14 13 -11 4 0 7 -14 8 -31 0 -18 5 -42 10 -53
7 -14 8 -6 4 29 -3 27 -5 55 -5 62 0 16 -9 17 -30 4z"/>
<path d="M12878 603 c-9 -10 -22 -35 -29 -56 -17 -49 1 -87 49 -99 39 -10 39
-19 7 -74 -66 -113 -209 -111 -246 5 -17 54 -33 64 -25 16 18 -100 75 -151
156 -139 25 3 57 12 71 19 34 18 83 75 109 125 11 22 27 40 35 40 10 0 15 10
15 30 0 20 -5 30 -15 30 -8 0 -17 14 -21 35 -13 72 -71 108 -106 68z m60 -86
c2 -11 -3 -17 -16 -17 -20 0 -36 23 -24 34 11 12 37 1 40 -17z"/>
<path d="M15668 603 c-9 -10 -22 -35 -29 -56 -17 -49 1 -87 49 -99 39 -10 39
-19 7 -74 -66 -113 -209 -111 -246 5 -17 54 -33 64 -25 16 18 -100 75 -151
156 -139 25 3 57 12 71 19 34 18 83 75 109 125 11 22 27 40 35 40 10 0 15 10
15 30 0 20 -5 30 -15 30 -8 0 -17 14 -21 35 -13 72 -71 108 -106 68z m60 -86
c2 -11 -3 -17 -16 -17 -20 0 -36 23 -24 34 11 12 37 1 40 -17z"/>
<path d="M7974 595 c-10 -8 -14 -15 -8 -15 6 0 17 7 24 15 16 19 9 19 -16 0z"/>
<path d="M8050 595 c0 -9 5 -15 11 -13 6 2 11 8 11 13 0 5 -5 11 -11 13 -6 2
-11 -4 -11 -13z"/>
<path d="M7920 590 c0 -5 5 -10 10 -10 6 0 10 5 10 10 0 6 -4 10 -10 10 -5 0
-10 -4 -10 -10z"/>
<path d="M947 570 c-20 -16 -27 -30 -27 -55 0 -68 88 -97 133 -44 54 66 -37
153 -106 99z m74 -31 c18 -18 19 -23 6 -42 -17 -26 -43 -33 -62 -17 -20 17
-19 57 3 69 24 15 29 14 53 -10z"/>
<path d="M2947 570 c-20 -16 -27 -30 -27 -55 0 -68 88 -97 133 -44 54 66 -37
153 -106 99z m74 -31 c18 -18 19 -23 6 -42 -17 -26 -43 -33 -62 -17 -20 17
-19 57 3 69 24 15 29 14 53 -10z"/>
<path d="M4117 570 c-20 -16 -27 -30 -27 -55 0 -68 88 -97 133 -44 54 66 -37
153 -106 99z m74 -31 c18 -18 19 -23 6 -42 -17 -26 -43 -33 -62 -17 -20 17
-19 57 3 69 24 15 29 14 53 -10z"/>
<path d="M8010 580 c-8 -5 -12 -11 -9 -14 2 -3 11 -1 19 4 8 5 12 11 9 14 -2
3 -11 1 -19 -4z"/>
<path d="M4687 552 c-20 -22 -22 -61 -4 -85 6 -10 29 -20 49 -23 30 -5 41 -2
62 19 31 31 33 60 6 87 -26 26 -90 27 -113 2z m93 -22 c8 -14 8 -26 0 -40 -19
-35 -80 -20 -80 20 0 40 61 55 80 20z"/>
<path d="M5777 552 c-20 -22 -22 -61 -4 -85 6 -10 29 -20 49 -23 30 -5 41 -2
62 19 31 31 33 60 6 87 -26 26 -90 27 -113 2z m93 -22 c8 -14 8 -26 0 -40 -19
-35 -80 -20 -80 20 0 40 61 55 80 20z"/>
<path d="M6167 552 c-20 -22 -22 -61 -4 -85 6 -10 29 -20 49 -23 30 -5 41 -2
62 19 31 31 33 60 6 87 -26 26 -90 27 -113 2z m93 -22 c8 -14 8 -26 0 -40 -19
-35 -80 -20 -80 20 0 40 61 55 80 20z"/>
<path d="M8054 556 c-3 -8 -3 -20 1 -26 3 -5 -1 -10 -10 -10 -11 0 -15 5 -11
15 6 16 -2 19 -21 7 -15 -10 -20 -30 -8 -32 6 -1 15 -5 20 -10 6 -4 25 -5 43
-3 25 4 32 10 32 27 0 37 -35 61 -46 32z m23 -28 c-3 -8 -6 -5 -6 6 -1 11 2
17 5 13 3 -3 4 -12 1 -19z"/>
<path d="M7936 513 c-11 -11 -6 -23 8 -23 8 0 17 4 20 9 7 10 -19 23 -28 14z"/>
<path d="M14498 379 c-22 -12 -23 -23 -3 -43 28 -27 69 10 44 40 -13 16 -18
17 -41 3z"/>
<path d="M10864 365 c-8 -21 2 -45 19 -45 20 0 40 27 33 45 -7 19 -45 20 -52
0z"/>
<path d="M14403 364 c-3 -8 2 -23 11 -32 15 -15 17 -15 32 0 21 21 11 48 -16
48 -11 0 -23 -7 -27 -16z"/>
<path d="M10783 354 c-3 -8 2 -23 11 -32 15 -15 17 -15 32 0 21 21 11 48 -16
48 -11 0 -23 -7 -27 -16z"/>
<path d="M12100 185 c-10 -12 -10 -18 0 -30 7 -8 18 -15 25 -15 19 0 36 25 29
44 -8 20 -38 21 -54 1z"/>
<path d="M12004 176 c-10 -26 4 -48 28 -44 17 2 23 10 23 28 0 18 -6 26 -23
28 -13 2 -25 -3 -28 -12z"/>
</g>
</svg>
